G04 EAGLE Gerber RS-274X export*
G75*
%MOMM*%
%FSLAX34Y34*%
%LPD*%
%INTop Copper*%
%IPPOS*%
%AMOC8*
5,1,8,0,0,1.08239X$1,22.5*%
G01*
%ADD10R,1.270000X0.558800*%
%ADD11R,0.558800X1.270000*%
%ADD12C,0.254000*%
%ADD13C,0.450000*%
%ADD14C,0.150000*%
%ADD15R,3.200000X3.200000*%
%ADD16R,1.300000X1.600000*%
%ADD17R,1.524000X0.762000*%
%ADD18R,0.400000X1.250000*%
%ADD19R,1.600000X1.300000*%
%ADD20R,1.600000X1.400000*%
%ADD21R,5.400000X6.200000*%
%ADD22R,1.000000X1.600000*%
%ADD23R,1.800000X2.200000*%
%ADD24R,3.000000X2.500000*%
%ADD25C,1.524000*%
%ADD26R,1.400000X1.600000*%
%ADD27C,1.422400*%
%ADD28R,1.200000X1.200000*%
%ADD29R,1.300000X1.500000*%
%ADD30C,1.778000*%
%ADD31C,1.879600*%
%ADD32C,1.524000*%
%ADD33C,3.216000*%
%ADD34R,3.500000X1.600000*%
%ADD35R,0.300000X1.300000*%
%ADD36R,0.965200X1.930400*%
%ADD37R,1.000000X1.100000*%
%ADD38R,1.100000X1.000000*%
%ADD39C,1.676400*%
%ADD40C,0.203200*%
%ADD41C,0.406400*%
%ADD42C,0.508000*%
%ADD43C,0.756400*%
%ADD44C,1.016000*%
%ADD45C,0.956400*%
%ADD46C,0.812800*%
%ADD47C,1.006400*%


D10*
G36*
X-353687Y-18040D02*
X-362666Y-27019D01*
X-366617Y-23068D01*
X-357638Y-14089D01*
X-353687Y-18040D01*
G37*
G36*
X-348030Y-23697D02*
X-357009Y-32676D01*
X-360960Y-28725D01*
X-351981Y-19746D01*
X-348030Y-23697D01*
G37*
G36*
X-342374Y-29354D02*
X-351353Y-38333D01*
X-355304Y-34382D01*
X-346325Y-25403D01*
X-342374Y-29354D01*
G37*
G36*
X-336717Y-35011D02*
X-345696Y-43990D01*
X-349647Y-40039D01*
X-340668Y-31060D01*
X-336717Y-35011D01*
G37*
G36*
X-331060Y-40668D02*
X-340039Y-49647D01*
X-343990Y-45696D01*
X-335011Y-36717D01*
X-331060Y-40668D01*
G37*
G36*
X-325403Y-46325D02*
X-334382Y-55304D01*
X-338333Y-51353D01*
X-329354Y-42374D01*
X-325403Y-46325D01*
G37*
G36*
X-319746Y-51981D02*
X-328725Y-60960D01*
X-332676Y-57009D01*
X-323697Y-48030D01*
X-319746Y-51981D01*
G37*
G36*
X-314089Y-57638D02*
X-323068Y-66617D01*
X-327019Y-62666D01*
X-318040Y-53687D01*
X-314089Y-57638D01*
G37*
D11*
G36*
X-292981Y-62666D02*
X-296932Y-66617D01*
X-305911Y-57638D01*
X-301960Y-53687D01*
X-292981Y-62666D01*
G37*
G36*
X-287324Y-57009D02*
X-291275Y-60960D01*
X-300254Y-51981D01*
X-296303Y-48030D01*
X-287324Y-57009D01*
G37*
G36*
X-281667Y-51353D02*
X-285618Y-55304D01*
X-294597Y-46325D01*
X-290646Y-42374D01*
X-281667Y-51353D01*
G37*
G36*
X-276010Y-45696D02*
X-279961Y-49647D01*
X-288940Y-40668D01*
X-284989Y-36717D01*
X-276010Y-45696D01*
G37*
G36*
X-270353Y-40039D02*
X-274304Y-43990D01*
X-283283Y-35011D01*
X-279332Y-31060D01*
X-270353Y-40039D01*
G37*
G36*
X-264696Y-34382D02*
X-268647Y-38333D01*
X-277626Y-29354D01*
X-273675Y-25403D01*
X-264696Y-34382D01*
G37*
G36*
X-259040Y-28725D02*
X-262991Y-32676D01*
X-271970Y-23697D01*
X-268019Y-19746D01*
X-259040Y-28725D01*
G37*
G36*
X-253383Y-23068D02*
X-257334Y-27019D01*
X-266313Y-18040D01*
X-262362Y-14089D01*
X-253383Y-23068D01*
G37*
D10*
G36*
X-253383Y3068D02*
X-262362Y-5911D01*
X-266313Y-1960D01*
X-257334Y7019D01*
X-253383Y3068D01*
G37*
G36*
X-259040Y8725D02*
X-268019Y-254D01*
X-271970Y3697D01*
X-262991Y12676D01*
X-259040Y8725D01*
G37*
G36*
X-264696Y14382D02*
X-273675Y5403D01*
X-277626Y9354D01*
X-268647Y18333D01*
X-264696Y14382D01*
G37*
G36*
X-270353Y20039D02*
X-279332Y11060D01*
X-283283Y15011D01*
X-274304Y23990D01*
X-270353Y20039D01*
G37*
G36*
X-276010Y25696D02*
X-284989Y16717D01*
X-288940Y20668D01*
X-279961Y29647D01*
X-276010Y25696D01*
G37*
G36*
X-281667Y31353D02*
X-290646Y22374D01*
X-294597Y26325D01*
X-285618Y35304D01*
X-281667Y31353D01*
G37*
G36*
X-287324Y37009D02*
X-296303Y28030D01*
X-300254Y31981D01*
X-291275Y40960D01*
X-287324Y37009D01*
G37*
G36*
X-292981Y42666D02*
X-301960Y33687D01*
X-305911Y37638D01*
X-296932Y46617D01*
X-292981Y42666D01*
G37*
D11*
G36*
X-314089Y37638D02*
X-318040Y33687D01*
X-327019Y42666D01*
X-323068Y46617D01*
X-314089Y37638D01*
G37*
G36*
X-319746Y31981D02*
X-323697Y28030D01*
X-332676Y37009D01*
X-328725Y40960D01*
X-319746Y31981D01*
G37*
G36*
X-325403Y26325D02*
X-329354Y22374D01*
X-338333Y31353D01*
X-334382Y35304D01*
X-325403Y26325D01*
G37*
G36*
X-331060Y20668D02*
X-335011Y16717D01*
X-343990Y25696D01*
X-340039Y29647D01*
X-331060Y20668D01*
G37*
G36*
X-336717Y15011D02*
X-340668Y11060D01*
X-349647Y20039D01*
X-345696Y23990D01*
X-336717Y15011D01*
G37*
G36*
X-342374Y9354D02*
X-346325Y5403D01*
X-355304Y14382D01*
X-351353Y18333D01*
X-342374Y9354D01*
G37*
G36*
X-348030Y3697D02*
X-351981Y-254D01*
X-360960Y8725D01*
X-357009Y12676D01*
X-348030Y3697D01*
G37*
G36*
X-353687Y-1960D02*
X-357638Y-5911D01*
X-366617Y3068D01*
X-362666Y7019D01*
X-353687Y-1960D01*
G37*
D12*
X-322000Y-89840D02*
X-322000Y-100000D01*
X-322000Y-110160D01*
X-298000Y-100000D02*
X-298000Y-89840D01*
X-298000Y-100000D02*
X-298000Y-110160D01*
X-310000Y-100000D02*
X-310000Y-89840D01*
X-310000Y-100000D02*
X-310000Y-110160D01*
D13*
X-322000Y-107275D02*
X-322000Y-92725D01*
X-310000Y-92725D02*
X-310000Y-107275D01*
X-298000Y-107275D02*
X-298000Y-92725D01*
D14*
X-340405Y-16717D02*
X-336517Y-12829D01*
X-340405Y-16717D02*
X-341465Y-15657D01*
X-337577Y-11769D01*
X-336517Y-12829D01*
X-338980Y-15292D02*
X-341100Y-15292D01*
X-339675Y-13867D02*
X-337555Y-13867D01*
X-336904Y-12442D02*
X-338250Y-12442D01*
X-332982Y-16364D02*
X-336870Y-20252D01*
X-337930Y-19192D01*
X-334042Y-15304D01*
X-332982Y-16364D01*
X-335445Y-18827D02*
X-337565Y-18827D01*
X-336140Y-17402D02*
X-334020Y-17402D01*
X-333369Y-15977D02*
X-334715Y-15977D01*
X-329446Y-19900D02*
X-333334Y-23788D01*
X-334394Y-22728D01*
X-330506Y-18840D01*
X-329446Y-19900D01*
X-331909Y-22363D02*
X-334029Y-22363D01*
X-332604Y-20938D02*
X-330484Y-20938D01*
X-329833Y-19513D02*
X-331179Y-19513D01*
X-325911Y-23435D02*
X-329799Y-27323D01*
X-330859Y-26263D01*
X-326971Y-22375D01*
X-325911Y-23435D01*
X-328374Y-25898D02*
X-330494Y-25898D01*
X-329069Y-24473D02*
X-326949Y-24473D01*
X-326298Y-23048D02*
X-327644Y-23048D01*
X-322375Y-26971D02*
X-326263Y-30859D01*
X-327323Y-29799D01*
X-323435Y-25911D01*
X-322375Y-26971D01*
X-324838Y-29434D02*
X-326958Y-29434D01*
X-325533Y-28009D02*
X-323413Y-28009D01*
X-322762Y-26584D02*
X-324108Y-26584D01*
X-318840Y-30506D02*
X-322728Y-34394D01*
X-323788Y-33334D01*
X-319900Y-29446D01*
X-318840Y-30506D01*
X-321303Y-32969D02*
X-323423Y-32969D01*
X-321998Y-31544D02*
X-319878Y-31544D01*
X-319227Y-30119D02*
X-320573Y-30119D01*
X-315304Y-34042D02*
X-319192Y-37930D01*
X-320252Y-36870D01*
X-316364Y-32982D01*
X-315304Y-34042D01*
X-317767Y-36505D02*
X-319887Y-36505D01*
X-318462Y-35080D02*
X-316342Y-35080D01*
X-315691Y-33655D02*
X-317037Y-33655D01*
X-311769Y-37577D02*
X-315657Y-41465D01*
X-316717Y-40405D01*
X-312829Y-36517D01*
X-311769Y-37577D01*
X-314232Y-40040D02*
X-316352Y-40040D01*
X-314927Y-38615D02*
X-312807Y-38615D01*
X-312156Y-37190D02*
X-313502Y-37190D01*
X-304343Y-41465D02*
X-303283Y-40405D01*
X-304343Y-41465D02*
X-308231Y-37577D01*
X-307171Y-36517D01*
X-303283Y-40405D01*
X-303648Y-40040D02*
X-305768Y-40040D01*
X-305073Y-38615D02*
X-307193Y-38615D01*
X-307844Y-37190D02*
X-306498Y-37190D01*
X-300808Y-37930D02*
X-299748Y-36870D01*
X-300808Y-37930D02*
X-304696Y-34042D01*
X-303636Y-32982D01*
X-299748Y-36870D01*
X-300113Y-36505D02*
X-302233Y-36505D01*
X-301538Y-35080D02*
X-303658Y-35080D01*
X-304309Y-33655D02*
X-302963Y-33655D01*
X-297272Y-34394D02*
X-296212Y-33334D01*
X-297272Y-34394D02*
X-301160Y-30506D01*
X-300100Y-29446D01*
X-296212Y-33334D01*
X-296577Y-32969D02*
X-298697Y-32969D01*
X-298002Y-31544D02*
X-300122Y-31544D01*
X-300773Y-30119D02*
X-299427Y-30119D01*
X-293737Y-30859D02*
X-292677Y-29799D01*
X-293737Y-30859D02*
X-297625Y-26971D01*
X-296565Y-25911D01*
X-292677Y-29799D01*
X-293042Y-29434D02*
X-295162Y-29434D01*
X-294467Y-28009D02*
X-296587Y-28009D01*
X-297238Y-26584D02*
X-295892Y-26584D01*
X-290201Y-27323D02*
X-289141Y-26263D01*
X-290201Y-27323D02*
X-294089Y-23435D01*
X-293029Y-22375D01*
X-289141Y-26263D01*
X-289506Y-25898D02*
X-291626Y-25898D01*
X-290931Y-24473D02*
X-293051Y-24473D01*
X-293702Y-23048D02*
X-292356Y-23048D01*
X-286666Y-23788D02*
X-285606Y-22728D01*
X-286666Y-23788D02*
X-290554Y-19900D01*
X-289494Y-18840D01*
X-285606Y-22728D01*
X-285971Y-22363D02*
X-288091Y-22363D01*
X-287396Y-20938D02*
X-289516Y-20938D01*
X-290167Y-19513D02*
X-288821Y-19513D01*
X-283130Y-20252D02*
X-282070Y-19192D01*
X-283130Y-20252D02*
X-287018Y-16364D01*
X-285958Y-15304D01*
X-282070Y-19192D01*
X-282435Y-18827D02*
X-284555Y-18827D01*
X-283860Y-17402D02*
X-285980Y-17402D01*
X-286631Y-15977D02*
X-285285Y-15977D01*
X-279595Y-16717D02*
X-278535Y-15657D01*
X-279595Y-16717D02*
X-283483Y-12829D01*
X-282423Y-11769D01*
X-278535Y-15657D01*
X-278900Y-15292D02*
X-281020Y-15292D01*
X-280325Y-13867D02*
X-282445Y-13867D01*
X-283096Y-12442D02*
X-281750Y-12442D01*
X-282423Y-8231D02*
X-278535Y-4343D01*
X-282423Y-8231D02*
X-283483Y-7171D01*
X-279595Y-3283D01*
X-278535Y-4343D01*
X-280998Y-6806D02*
X-283118Y-6806D01*
X-281693Y-5381D02*
X-279573Y-5381D01*
X-278922Y-3956D02*
X-280268Y-3956D01*
X-282070Y-808D02*
X-285958Y-4696D01*
X-287018Y-3636D01*
X-283130Y252D01*
X-282070Y-808D01*
X-284533Y-3271D02*
X-286653Y-3271D01*
X-285228Y-1846D02*
X-283108Y-1846D01*
X-282457Y-421D02*
X-283803Y-421D01*
X-285606Y2728D02*
X-289494Y-1160D01*
X-290554Y-100D01*
X-286666Y3788D01*
X-285606Y2728D01*
X-288069Y265D02*
X-290189Y265D01*
X-288764Y1690D02*
X-286644Y1690D01*
X-285993Y3115D02*
X-287339Y3115D01*
X-289141Y6263D02*
X-293029Y2375D01*
X-294089Y3435D01*
X-290201Y7323D01*
X-289141Y6263D01*
X-291604Y3800D02*
X-293724Y3800D01*
X-292299Y5225D02*
X-290179Y5225D01*
X-289528Y6650D02*
X-290874Y6650D01*
X-292677Y9799D02*
X-296565Y5911D01*
X-297625Y6971D01*
X-293737Y10859D01*
X-292677Y9799D01*
X-295140Y7336D02*
X-297260Y7336D01*
X-295835Y8761D02*
X-293715Y8761D01*
X-293064Y10186D02*
X-294410Y10186D01*
X-296212Y13334D02*
X-300100Y9446D01*
X-301160Y10506D01*
X-297272Y14394D01*
X-296212Y13334D01*
X-298675Y10871D02*
X-300795Y10871D01*
X-299370Y12296D02*
X-297250Y12296D01*
X-296599Y13721D02*
X-297945Y13721D01*
X-299748Y16870D02*
X-303636Y12982D01*
X-304696Y14042D01*
X-300808Y17930D01*
X-299748Y16870D01*
X-302211Y14407D02*
X-304331Y14407D01*
X-302906Y15832D02*
X-300786Y15832D01*
X-300135Y17257D02*
X-301481Y17257D01*
X-303283Y20405D02*
X-307171Y16517D01*
X-308231Y17577D01*
X-304343Y21465D01*
X-303283Y20405D01*
X-305746Y17942D02*
X-307866Y17942D01*
X-306441Y19367D02*
X-304321Y19367D01*
X-303670Y20792D02*
X-305016Y20792D01*
X-311769Y17577D02*
X-312829Y16517D01*
X-316717Y20405D01*
X-315657Y21465D01*
X-311769Y17577D01*
X-312134Y17942D02*
X-314254Y17942D01*
X-313559Y19367D02*
X-315679Y19367D01*
X-316330Y20792D02*
X-314984Y20792D01*
X-315304Y14042D02*
X-316364Y12982D01*
X-320252Y16870D01*
X-319192Y17930D01*
X-315304Y14042D01*
X-315669Y14407D02*
X-317789Y14407D01*
X-317094Y15832D02*
X-319214Y15832D01*
X-319865Y17257D02*
X-318519Y17257D01*
X-318840Y10506D02*
X-319900Y9446D01*
X-323788Y13334D01*
X-322728Y14394D01*
X-318840Y10506D01*
X-319205Y10871D02*
X-321325Y10871D01*
X-320630Y12296D02*
X-322750Y12296D01*
X-323401Y13721D02*
X-322055Y13721D01*
X-322375Y6971D02*
X-323435Y5911D01*
X-327323Y9799D01*
X-326263Y10859D01*
X-322375Y6971D01*
X-322740Y7336D02*
X-324860Y7336D01*
X-324165Y8761D02*
X-326285Y8761D01*
X-326936Y10186D02*
X-325590Y10186D01*
X-325911Y3435D02*
X-326971Y2375D01*
X-330859Y6263D01*
X-329799Y7323D01*
X-325911Y3435D01*
X-326276Y3800D02*
X-328396Y3800D01*
X-327701Y5225D02*
X-329821Y5225D01*
X-330472Y6650D02*
X-329126Y6650D01*
X-329446Y-100D02*
X-330506Y-1160D01*
X-334394Y2728D01*
X-333334Y3788D01*
X-329446Y-100D01*
X-329811Y265D02*
X-331931Y265D01*
X-331236Y1690D02*
X-333356Y1690D01*
X-334007Y3115D02*
X-332661Y3115D01*
X-332982Y-3636D02*
X-334042Y-4696D01*
X-337930Y-808D01*
X-336870Y252D01*
X-332982Y-3636D01*
X-333347Y-3271D02*
X-335467Y-3271D01*
X-334772Y-1846D02*
X-336892Y-1846D01*
X-337543Y-421D02*
X-336197Y-421D01*
X-336517Y-7171D02*
X-337577Y-8231D01*
X-341465Y-4343D01*
X-340405Y-3283D01*
X-336517Y-7171D01*
X-336882Y-6806D02*
X-339002Y-6806D01*
X-338307Y-5381D02*
X-340427Y-5381D01*
X-341078Y-3956D02*
X-339732Y-3956D01*
D15*
G36*
X-287373Y-10000D02*
X-310000Y-32627D01*
X-332627Y-10000D01*
X-310000Y12627D01*
X-287373Y-10000D01*
G37*
D16*
X-210128Y49736D03*
X-230128Y49736D03*
X-219928Y30320D03*
X-239928Y30320D03*
D17*
X-165400Y-320950D03*
X-114600Y-320950D03*
X-165400Y-359050D03*
X-114600Y-359050D03*
D18*
X-275750Y-186250D03*
X-269250Y-186250D03*
X-262750Y-186250D03*
X-256250Y-186250D03*
X-249750Y-186250D03*
X-243250Y-186250D03*
X-236750Y-186250D03*
X-230250Y-186250D03*
X-223750Y-186250D03*
X-217250Y-186250D03*
X-210750Y-186250D03*
X-204250Y-186250D03*
X-217250Y-113750D03*
X-223750Y-113750D03*
X-230250Y-113750D03*
X-236750Y-113750D03*
X-243250Y-113750D03*
X-249750Y-113750D03*
X-256250Y-113750D03*
X-262750Y-113750D03*
X-269250Y-113750D03*
X-275750Y-113750D03*
X-210750Y-113750D03*
X-204250Y-113750D03*
D19*
X-300000Y-160000D03*
X-300000Y-140000D03*
D20*
X-180000Y-164000D03*
X-180000Y-136000D03*
D21*
X360000Y-35000D03*
D22*
X337200Y-108000D03*
X382800Y-108000D03*
D23*
X285500Y-100000D03*
X234500Y-100000D03*
D24*
X415000Y-50000D03*
X485000Y-50000D03*
D25*
X202700Y-142380D02*
X202700Y-157620D01*
X177300Y-157620D02*
X177300Y-142380D01*
D26*
X372820Y14290D03*
X344820Y14290D03*
D27*
X140000Y-356500D03*
X140000Y-323500D03*
X115000Y-356500D03*
X165000Y-356500D03*
X165000Y-323500D03*
X115000Y-323500D03*
D28*
X-209787Y-10127D03*
X-230787Y-10127D03*
X470500Y-330000D03*
X449500Y-330000D03*
D29*
X450500Y-300000D03*
X469500Y-300000D03*
D28*
X-449500Y-330000D03*
X-470500Y-330000D03*
D29*
X-469500Y-300000D03*
X-450500Y-300000D03*
D30*
X-320000Y100000D03*
X-302039Y117961D03*
X-284079Y135921D03*
X-266118Y153882D03*
D25*
X310533Y98691D02*
X321309Y109467D01*
X303349Y127428D02*
X292572Y116651D01*
X274612Y134612D02*
X285388Y145388D01*
X267428Y163349D02*
X256651Y152572D01*
X238691Y170533D02*
X249467Y181309D01*
D31*
X-475400Y-69050D03*
X-475400Y-43650D03*
X-450000Y-69050D03*
X-450000Y-43650D03*
X-424600Y-69050D03*
X-424600Y-43650D03*
D25*
X252700Y-142380D02*
X252700Y-157620D01*
X227300Y-157620D02*
X227300Y-142380D01*
X127000Y212380D02*
X127000Y227620D01*
X101600Y227620D02*
X101600Y212380D01*
X76200Y212380D02*
X76200Y227620D01*
X50800Y227620D02*
X50800Y212380D01*
X25400Y212380D02*
X25400Y227620D01*
X0Y227620D02*
X0Y212380D01*
X-25400Y212380D02*
X-25400Y227620D01*
X-50800Y227620D02*
X-50800Y212380D01*
X-76200Y212380D02*
X-76200Y227620D01*
X-101600Y227620D02*
X-101600Y212380D01*
X-127000Y212380D02*
X-127000Y227620D01*
D17*
X-75400Y-320950D03*
X-24600Y-320950D03*
X-75400Y-359050D03*
X-24600Y-359050D03*
X14600Y-320950D03*
X65400Y-320950D03*
X14600Y-359050D03*
X65400Y-359050D03*
D32*
X241671Y44645D03*
X267071Y44645D03*
X292471Y44645D03*
D30*
X410000Y10000D03*
X410000Y40000D03*
D33*
X-305000Y190000D03*
X305000Y230000D03*
X530000Y-10000D03*
X-530000Y-10000D03*
D34*
X243000Y-40000D03*
X297000Y-40000D03*
D33*
X-370000Y110000D03*
D19*
X-380000Y-90000D03*
X-380000Y-70000D03*
X-360000Y-100000D03*
X-360000Y-80000D03*
D33*
X-530000Y-50000D03*
X530000Y-50000D03*
D35*
X37500Y267500D03*
X32500Y267500D03*
X27500Y267500D03*
X22500Y267500D03*
X17500Y267500D03*
X12500Y267500D03*
X7500Y267500D03*
X2500Y267500D03*
X-2500Y267500D03*
X-7500Y267500D03*
X-12500Y267500D03*
X-17500Y267500D03*
X-22500Y267500D03*
X-27500Y267500D03*
X-32500Y267500D03*
X-37500Y267500D03*
D23*
X-56500Y300000D03*
X56500Y300000D03*
D33*
X-305000Y230000D03*
X305000Y190000D03*
X370000Y110000D03*
D36*
X191500Y97000D03*
X228500Y143000D03*
X228500Y97000D03*
D31*
X-220000Y-50000D03*
X-220000Y-75400D03*
D33*
X-200000Y250000D03*
X-200000Y210000D03*
X200000Y210000D03*
X200000Y250000D03*
X-370000Y70000D03*
X370000Y70000D03*
D31*
X-490000Y0D03*
X-472039Y17961D03*
X-454079Y35921D03*
X-436118Y53882D03*
X-418158Y71842D03*
X-364000Y-262000D03*
X-364000Y-236600D03*
X-338600Y-262000D03*
X-338600Y-236600D03*
X-313200Y-262000D03*
X-313200Y-236600D03*
X365000Y-238000D03*
X365000Y-263400D03*
X339600Y-238000D03*
X339600Y-263400D03*
X314200Y-238000D03*
X314200Y-263400D03*
D37*
X-627500Y66000D03*
X-644500Y66000D03*
X-676400Y66000D03*
X-659400Y66000D03*
D38*
X-631800Y26200D03*
X-631800Y45300D03*
X-672300Y26200D03*
X-672300Y45300D03*
D39*
X-626500Y2000D03*
X-651900Y2000D03*
X-677300Y2000D03*
D33*
X-651900Y94600D03*
D37*
X672500Y66000D03*
X655500Y66000D03*
X623600Y66000D03*
X640600Y66000D03*
D38*
X668200Y26200D03*
X668200Y45300D03*
X627700Y26200D03*
X627700Y45300D03*
D39*
X673500Y2000D03*
X648100Y2000D03*
X622700Y2000D03*
D33*
X648100Y94600D03*
D38*
X-436000Y242500D03*
X-436000Y225500D03*
X-436000Y193600D03*
X-436000Y210600D03*
D37*
X-396200Y238200D03*
X-415300Y238200D03*
X-396200Y197700D03*
X-415300Y197700D03*
D39*
X-372000Y243500D03*
X-372000Y218100D03*
X-372000Y192700D03*
D33*
X-464600Y218100D03*
D38*
X436000Y197500D03*
X436000Y214500D03*
X436000Y246400D03*
X436000Y229400D03*
D37*
X396200Y201800D03*
X415300Y201800D03*
X396200Y242300D03*
X415300Y242300D03*
D39*
X372000Y196500D03*
X372000Y221900D03*
X372000Y247300D03*
D33*
X464600Y221900D03*
D40*
X-317778Y-35456D02*
X-321310Y-38988D01*
X-321310Y-49594D02*
X-326211Y-54495D01*
X-321310Y-49594D02*
X-321310Y-38988D01*
X-322000Y-79320D02*
X-322000Y-100000D01*
X-322000Y-79320D02*
X-332740Y-68580D01*
X-332740Y-61024D01*
X-326211Y-54495D01*
X-314243Y-53841D02*
X-314243Y-38991D01*
X-314243Y-53841D02*
X-320554Y-60152D01*
X-298000Y-82707D02*
X-298000Y-100000D01*
X-298000Y-82707D02*
X-320554Y-60152D01*
D12*
X-27500Y267500D02*
X-24384Y267500D01*
X-22500Y267500D01*
D40*
X-331920Y-21314D02*
X-336007Y-25400D01*
X-342371Y-25400D02*
X-348839Y-31868D01*
X-342371Y-25400D02*
X-336007Y-25400D01*
X-331470Y-35006D02*
X-324849Y-28385D01*
X-331470Y-37127D02*
X-337525Y-43182D01*
X-331470Y-37127D02*
X-331470Y-35006D01*
X-295151Y8385D02*
X-289560Y13976D01*
X-289560Y16510D01*
X-282888Y23182D01*
X-282475Y23182D01*
D41*
X-262750Y-186250D02*
X-259588Y-186250D01*
X-256250Y-186250D01*
X-223750Y-186250D02*
X-220472Y-186250D01*
X-217250Y-186250D01*
D42*
X-24384Y267500D02*
X-25146Y268262D01*
X-25146Y276860D01*
X-20320Y281686D01*
X33274Y281686D01*
D43*
X33274Y281686D03*
D12*
X-295151Y8385D02*
X-310000Y-6465D01*
X-310000Y-10000D01*
X-320607Y-10000D02*
X-331920Y-21314D01*
X-320607Y-10000D02*
X-313436Y-10000D01*
X-310000Y-10000D01*
X-310000Y-13536D02*
X-324849Y-28385D01*
X-310000Y-13536D02*
X-310000Y-10000D01*
D44*
X410000Y40000D02*
X432694Y40000D01*
X485000Y-12306D02*
X485000Y-50000D01*
X485000Y-12306D02*
X432694Y40000D01*
X372820Y14290D02*
X372820Y-22180D01*
X360000Y-35000D01*
X355000Y-40000D02*
X297000Y-40000D01*
X355000Y-40000D02*
X360000Y-35000D01*
X375442Y-19558D01*
X400558Y-19558D01*
D45*
X400558Y-19558D03*
X297180Y-18796D03*
D44*
X297180Y-39820D01*
X297000Y-40000D01*
D45*
X-180086Y-184150D03*
D44*
X-180086Y-164086D01*
X-180000Y-164000D01*
X-259588Y-172212D02*
X-259588Y-186250D01*
X-259588Y-172212D02*
X-251376Y-164000D01*
X-243586Y-164000D01*
X-235712Y-164000D01*
X-230632Y-164000D01*
X-220980Y-164000D01*
X-180000Y-164000D01*
X-220472Y-164508D02*
X-220472Y-186250D01*
X-220472Y-164508D02*
X-220980Y-164000D01*
X-180000Y-164000D02*
X-163406Y-164000D01*
X-137414Y-189992D01*
D45*
X-137414Y-189992D03*
D44*
X-280670Y-160000D02*
X-300000Y-160000D01*
X-280670Y-160000D02*
X-255376Y-160000D01*
X-251376Y-164000D01*
D41*
X-236750Y-157226D02*
X-236750Y-113750D01*
X-236750Y-157226D02*
X-236750Y-162962D01*
X-235712Y-164000D01*
X-236750Y-157226D02*
X-243524Y-164000D01*
X-243586Y-164000D01*
X-236750Y-157226D02*
X-230632Y-163344D01*
X-230632Y-164000D01*
X-310000Y-113926D02*
X-310000Y-100000D01*
X-299720Y-124206D02*
X-290322Y-124206D01*
X-280670Y-133858D01*
X-280670Y-160000D01*
X-299720Y-124206D02*
X-310000Y-113926D01*
D44*
X-370000Y-100000D02*
X-380000Y-90000D01*
X-370000Y-100000D02*
X-360000Y-100000D01*
X-335046Y-160000D02*
X-300000Y-160000D01*
X-360000Y-135046D02*
X-360000Y-100000D01*
X-360000Y-135046D02*
X-335046Y-160000D01*
X-165400Y-290368D02*
X-165400Y-320950D01*
X-165400Y-290368D02*
X-140462Y-265430D01*
X-47244Y-265430D01*
X-27178Y-285496D01*
D43*
X-27178Y-285496D03*
D12*
X-469500Y-300000D02*
X-475462Y-300000D01*
X-487172Y-288290D01*
D43*
X-487172Y-288290D03*
D45*
X-374142Y-146812D03*
D46*
X-362376Y-135046D01*
X-360000Y-135046D01*
D12*
X-362183Y-45212D02*
X-348839Y-31868D01*
X-362183Y-45212D02*
X-362712Y-45212D01*
D43*
X-362712Y-45212D03*
D44*
X-219928Y30320D02*
X-210128Y40120D01*
X-210128Y49736D01*
D45*
X-192278Y50038D03*
D44*
X-192580Y49736D01*
X-210128Y49736D01*
X435176Y-300000D02*
X450500Y-300000D01*
D45*
X435176Y-300000D03*
D12*
X-295151Y8385D02*
X-313436Y-9901D01*
X-313436Y-10000D01*
X-37500Y267500D02*
X-34798Y267500D01*
X-32500Y267500D01*
X-249750Y-92270D02*
X-249750Y-113750D01*
X-249750Y-92270D02*
X-248920Y-91440D01*
D43*
X-248920Y-91440D03*
D12*
X-265505Y6211D02*
X-251460Y20256D01*
X-251460Y26670D01*
X-247810Y30320D01*
X-239928Y30320D01*
D40*
X-328385Y-24849D02*
X-334016Y-30480D01*
X-336550Y-30480D01*
X-343182Y-37112D01*
X-343182Y-37525D01*
X-326390Y-36997D02*
X-321314Y-31920D01*
X-326390Y-43361D02*
X-331868Y-48839D01*
X-326390Y-43361D02*
X-326390Y-36997D01*
X-284544Y-2222D02*
X-281052Y1270D01*
X-270446Y1270D02*
X-265505Y6211D01*
X-270446Y1270D02*
X-281052Y1270D01*
X-343182Y-37525D02*
X-375657Y-70000D01*
X-380000Y-70000D01*
X-360000Y-76971D02*
X-331868Y-48839D01*
X-360000Y-76971D02*
X-360000Y-80000D01*
D46*
X243000Y-40000D02*
X297290Y14290D01*
X344820Y14290D01*
X344820Y75180D02*
X315921Y104079D01*
X344820Y75180D02*
X344820Y48260D01*
X344820Y42926D01*
X344820Y39116D01*
X344820Y36464D01*
X344820Y14290D01*
X101600Y220000D02*
X76200Y220000D01*
X101600Y220000D02*
X101600Y208534D01*
X189484Y120650D02*
X215900Y120650D01*
X228500Y108050D01*
X228500Y97000D01*
X189484Y120650D02*
X101600Y208534D01*
X308842Y97000D02*
X315921Y104079D01*
X308842Y97000D02*
X228500Y97000D01*
D42*
X-34798Y267500D02*
X-35052Y267754D01*
X-35052Y281432D01*
X-25908Y290576D01*
X37846Y290576D01*
X76200Y252222D01*
X76200Y220000D01*
D46*
X-237642Y28034D02*
X-239928Y30320D01*
X-237642Y28034D02*
X-237642Y13462D01*
X-237642Y8788D01*
X-230787Y1933D02*
X-230787Y-10127D01*
X-230787Y1933D02*
X-237642Y8788D01*
X-370000Y-70000D02*
X-380000Y-70000D01*
X-370000Y-70000D02*
X-360000Y-80000D01*
X-351292Y-80000D01*
X-342900Y-88392D02*
X-342900Y-124206D01*
X-327106Y-140000D01*
X-316230Y-140000D01*
X-300000Y-140000D01*
X-342900Y-88392D02*
X-351292Y-80000D01*
X382800Y-108000D02*
X406604Y-108000D01*
X450850Y-63754D01*
X450850Y-33528D01*
X410000Y7322D02*
X410000Y10000D01*
X410000Y7322D02*
X450850Y-33528D01*
X410000Y10000D02*
X377074Y42926D01*
X351282Y42926D01*
X348630Y42926D02*
X344820Y42926D01*
X350154Y42926D02*
X351282Y42926D01*
X350154Y42926D02*
X344820Y48260D01*
X348630Y42926D02*
X350154Y42926D01*
X348630Y42926D02*
X344820Y39116D01*
X344820Y36464D02*
X351282Y42926D01*
X365000Y-221234D02*
X365000Y-238000D01*
X365000Y-221234D02*
X365000Y-125800D01*
X382800Y-108000D01*
X-56710Y-340360D02*
X-75400Y-359050D01*
X-4090Y-340360D02*
X14600Y-359050D01*
X-4090Y-340360D02*
X-56710Y-340360D01*
X242570Y-221234D02*
X365000Y-221234D01*
X242570Y-221234D02*
X201930Y-261874D01*
D43*
X201930Y-261874D03*
X84582Y-286512D03*
D46*
X84836Y-286512D01*
X84836Y-332232D01*
X74422Y-342646D01*
X31004Y-342646D02*
X14600Y-359050D01*
X31004Y-342646D02*
X74422Y-342646D01*
X-75400Y-359050D02*
X-100694Y-333756D01*
X-124714Y-333756D01*
D43*
X-124714Y-333756D03*
X-316230Y-140000D03*
X-379476Y-165100D03*
D42*
X-353822Y-165100D01*
X-343916Y-175006D01*
X-324866Y-175006D01*
D43*
X-324866Y-175006D03*
D42*
X-364000Y-262000D02*
X-369190Y-262000D01*
X-397764Y-233426D02*
X-397764Y-213868D01*
D43*
X-397764Y-213868D03*
D42*
X-397764Y-233426D02*
X-369190Y-262000D01*
D43*
X-187452Y-76200D03*
D12*
X-187452Y-27940D01*
X-197358Y6350D02*
X-204724Y13716D01*
X-237388Y13716D01*
X-237642Y13462D01*
X-197358Y-18034D02*
X-187452Y-27940D01*
X-197358Y-18034D02*
X-197358Y6350D01*
D43*
X-237642Y13462D03*
D12*
X-266700Y27643D02*
X-276818Y17525D01*
X-266700Y27643D02*
X-266700Y31750D01*
D43*
X-266700Y31750D03*
X-242570Y49530D03*
D12*
X-230334Y49530D01*
X-230128Y49736D01*
D40*
X-285034Y11430D02*
X-291615Y4849D01*
X-282913Y11430D02*
X-276818Y17525D01*
X-282913Y11430D02*
X-285034Y11430D01*
D43*
X-355600Y40640D03*
D12*
X-355600Y29943D01*
X-344438Y18782D01*
X-343182Y17525D01*
D40*
X-334966Y11430D02*
X-328385Y4849D01*
X-337087Y11430D02*
X-344438Y18782D01*
X-337087Y11430D02*
X-334966Y11430D01*
D43*
X-384556Y-18288D03*
D12*
X-139192Y-332842D02*
X-165400Y-359050D01*
X-139192Y-332842D02*
X-139192Y-309372D01*
X-126492Y-296672D01*
X-102616Y-296672D01*
D43*
X-102616Y-296672D03*
D12*
X-409956Y-50800D02*
X-424600Y-65444D01*
X-409956Y-50800D02*
X-409956Y-30734D01*
X-410210Y-30480D01*
X-398018Y-18288D01*
X-384556Y-18288D01*
X-240478Y-283972D02*
X-165400Y-359050D01*
X-240478Y-283972D02*
X-376936Y-283972D01*
X-418846Y-242062D01*
X-418846Y-74804D02*
X-424600Y-69050D01*
X-418846Y-74804D02*
X-418846Y-242062D01*
X-424600Y-69050D02*
X-424600Y-65444D01*
X-293789Y34495D02*
X-145404Y182880D01*
X31750Y182880D01*
X50800Y201930D02*
X50800Y220000D01*
X50800Y201930D02*
X31750Y182880D01*
X-14732Y267500D02*
X-17500Y267500D01*
X-14732Y267500D02*
X-12500Y267500D01*
X-14732Y267500D02*
X-14986Y267246D01*
X-14986Y247396D01*
X-7366Y239776D01*
X44958Y239776D01*
X50800Y233934D01*
X50800Y220000D01*
D40*
X-299720Y17958D02*
X-302222Y15456D01*
X-299720Y28564D02*
X-293789Y34495D01*
X-299720Y28564D02*
X-299720Y17958D01*
D12*
X-299446Y40152D02*
X-149098Y190500D01*
X13970Y190500D02*
X25400Y201930D01*
X25400Y220000D01*
X13970Y190500D02*
X-149098Y190500D01*
X-7500Y267500D02*
X-2500Y267500D01*
X37338Y247142D02*
X38354Y248158D01*
X37338Y247142D02*
X762Y247142D01*
X-2500Y267500D02*
X-4786Y267500D01*
X-4786Y252690D01*
X762Y247142D01*
D43*
X38354Y248158D03*
D40*
X-304800Y19949D02*
X-305757Y18991D01*
X-304800Y34798D02*
X-299446Y40152D01*
X-304800Y34798D02*
X-304800Y19949D01*
D12*
X-320554Y40152D02*
X-308637Y52070D01*
X-11430Y198120D02*
X0Y209550D01*
X0Y220000D01*
X-298450Y52070D02*
X-308637Y52070D01*
X-298450Y52070D02*
X-152400Y198120D01*
X-11430Y198120D01*
X2500Y267500D02*
X4826Y267500D01*
X7500Y267500D01*
D43*
X4826Y254734D03*
D12*
X4826Y267500D01*
D40*
X-314243Y33841D02*
X-314243Y18991D01*
X-314243Y33841D02*
X-320554Y40152D01*
D12*
X-326211Y34495D02*
X-332740Y41024D01*
X-332740Y45720D01*
X-318770Y59690D01*
X-143510Y231140D02*
X-132080Y242570D01*
X-34290Y242570D01*
X-25400Y233680D01*
X-25400Y220000D01*
X-300990Y59690D02*
X-318770Y59690D01*
X-300990Y59690D02*
X-143510Y217170D01*
X-143510Y231140D01*
X12500Y267500D02*
X14732Y267500D01*
X17500Y267500D01*
X14732Y267500D02*
X14732Y255016D01*
D43*
X14732Y255016D03*
D40*
X-317778Y15456D02*
X-320040Y17718D01*
X-320040Y28324D02*
X-326211Y34495D01*
X-320040Y28324D02*
X-320040Y17718D01*
D12*
X-331868Y28839D02*
X-340360Y37331D01*
X-320040Y67310D02*
X-303530Y67310D01*
X-151130Y219710D02*
X-151130Y233680D01*
X-134620Y250190D01*
X-54610Y250190D02*
X-50800Y254000D01*
D43*
X-50800Y254000D03*
D12*
X-340360Y46990D02*
X-340360Y37331D01*
X-340360Y46990D02*
X-320040Y67310D01*
X-303530Y67310D02*
X-151130Y219710D01*
X-134620Y250190D02*
X-54610Y250190D01*
D40*
X-321314Y11920D02*
X-326390Y16997D01*
X-326390Y23361D02*
X-331868Y28839D01*
X-326390Y23361D02*
X-326390Y16997D01*
D12*
X-337525Y23182D02*
X-339417Y25073D01*
X-346710Y32367D01*
X-346710Y49530D01*
X-321310Y74930D01*
X-305838Y74930D02*
X-158750Y222018D01*
X-158750Y236220D01*
X-138430Y256540D01*
X-78740Y256540D02*
X-76200Y259080D01*
D43*
X-76200Y259080D03*
D12*
X-305838Y74930D02*
X-321310Y74930D01*
X-138430Y256540D02*
X-78740Y256540D01*
D40*
X-324849Y8385D02*
X-331470Y15006D01*
X-331470Y17127D02*
X-339417Y25073D01*
X-331470Y17127D02*
X-331470Y15006D01*
D12*
X-271161Y11868D02*
X-259080Y23949D01*
X-140970Y165100D02*
X-137160Y165100D01*
D43*
X-137160Y165100D03*
D12*
X-259080Y46990D02*
X-259080Y23949D01*
X-259080Y46990D02*
X-140970Y165100D01*
D40*
X-284313Y5080D02*
X-288080Y1314D01*
X-277949Y5080D02*
X-271161Y11868D01*
X-277949Y5080D02*
X-284313Y5080D01*
D12*
X-288132Y28839D02*
X-142981Y173990D01*
X-142240Y173990D01*
D43*
X-142240Y173990D03*
X-142240Y208280D03*
D12*
X-130520Y220000D01*
X-127000Y220000D01*
X34798Y267500D02*
X37500Y267500D01*
X34798Y267500D02*
X32500Y267500D01*
D40*
X-294640Y15967D02*
X-298686Y11920D01*
X-294640Y22331D02*
X-288132Y28839D01*
X-294640Y22331D02*
X-294640Y15967D01*
D43*
X28448Y255016D03*
D12*
X34798Y261366D01*
X34798Y267500D01*
X-437208Y19050D02*
X-454079Y35921D01*
X-437208Y19050D02*
X-412750Y19050D01*
D43*
X-412750Y19050D03*
X-403860Y33020D03*
D12*
X-389890Y19050D01*
X-356021Y19050D02*
X-348839Y11868D01*
X-356021Y19050D02*
X-389890Y19050D01*
D40*
X-336957Y6350D02*
X-331920Y1314D01*
X-343321Y6350D02*
X-348839Y11868D01*
X-343321Y6350D02*
X-336957Y6350D01*
D12*
X-394937Y12700D02*
X-436118Y53882D01*
X-360984Y12700D02*
X-354495Y6211D01*
X-360984Y12700D02*
X-394937Y12700D01*
D40*
X-338948Y1270D02*
X-335456Y-2222D01*
X-349554Y1270D02*
X-354495Y6211D01*
X-349554Y1270D02*
X-338948Y1270D01*
X-339669Y-5080D02*
X-338991Y-5757D01*
X-354518Y-5080D02*
X-360152Y554D01*
X-354518Y-5080D02*
X-339669Y-5080D01*
D12*
X-360152Y554D02*
X-368300Y-7594D01*
X-407416Y-189230D02*
X-375412Y-221234D01*
X-338600Y-227566D02*
X-338600Y-236600D01*
X-368300Y-15748D02*
X-368300Y-7594D01*
X-375412Y-221234D02*
X-344932Y-221234D01*
X-338600Y-227566D01*
X-402082Y-51816D02*
X-402082Y-49530D01*
X-368300Y-15748D01*
X-407416Y-57150D02*
X-407416Y-189230D01*
X-407416Y-57150D02*
X-402082Y-51816D01*
D40*
X-360152Y-20554D02*
X-353841Y-14243D01*
X-338991Y-14243D01*
D12*
X14600Y-298318D02*
X14600Y-320950D01*
X14600Y-298318D02*
X4064Y-287782D01*
D43*
X4064Y-287782D03*
X-301244Y-204470D03*
D12*
X-380238Y-204470D01*
X-400050Y-184658D01*
X-400050Y-60198D01*
X-360406Y-20554D02*
X-360152Y-20554D01*
X-360406Y-20554D02*
X-400050Y-60198D01*
D40*
X-337998Y-20320D02*
X-335456Y-17778D01*
X-348604Y-20320D02*
X-354495Y-26211D01*
X-348604Y-20320D02*
X-337998Y-20320D01*
D12*
X-75400Y-288836D02*
X-75400Y-320950D01*
X-75400Y-288836D02*
X-79756Y-284480D01*
D43*
X-79756Y-284480D03*
X-301498Y-193294D03*
D12*
X-378714Y-193294D01*
X-393192Y-178816D01*
X-383656Y-55372D02*
X-354495Y-26211D01*
X-383656Y-55372D02*
X-386080Y-55372D01*
X-393192Y-62484D01*
X-393192Y-178816D01*
D43*
X-383656Y-55372D03*
X-387858Y54102D03*
D12*
X-380238Y46482D01*
X-274574Y116332D02*
X-274574Y127000D01*
X-283495Y135921D01*
X-284079Y135921D01*
X-361696Y46482D02*
X-380238Y46482D01*
X-361696Y46482D02*
X-327152Y81026D01*
X-309880Y81026D01*
X-274574Y116332D01*
X-269250Y-90348D02*
X-269250Y-113750D01*
X-269250Y-90348D02*
X-299446Y-60152D01*
D40*
X-305757Y-53841D02*
X-305757Y-38991D01*
X-305757Y-53841D02*
X-299446Y-60152D01*
D12*
X-217250Y-97710D02*
X-217250Y-113750D01*
X-238760Y-52324D02*
X-239522Y-51562D01*
X-238760Y-52324D02*
X-238760Y-76200D01*
D43*
X-239522Y-51562D03*
X-283210Y-64770D03*
D12*
X-283514Y-64770D01*
X-293789Y-54495D01*
X-238760Y-76200D02*
X-217250Y-97710D01*
D40*
X-298450Y-39228D02*
X-302222Y-35456D01*
X-298450Y-49834D02*
X-293789Y-54495D01*
X-298450Y-49834D02*
X-298450Y-39228D01*
D12*
X-262750Y-74221D02*
X-262750Y-113750D01*
X-262750Y-74221D02*
X-286595Y-50375D01*
X-288132Y-48839D01*
D40*
X-293370Y-37237D02*
X-298686Y-31920D01*
X-293370Y-43601D02*
X-286595Y-50375D01*
X-293370Y-43601D02*
X-293370Y-37237D01*
D12*
X-256250Y-69407D02*
X-256250Y-113750D01*
X-256250Y-69407D02*
X-282475Y-43182D01*
D40*
X-288290Y-35246D02*
X-295151Y-28385D01*
X-288290Y-37367D02*
X-282475Y-43182D01*
X-288290Y-37367D02*
X-288290Y-35246D01*
D12*
X-230250Y-99950D02*
X-230250Y-113750D01*
X-250190Y-64153D02*
X-276818Y-37525D01*
X-250190Y-80010D02*
X-230250Y-99950D01*
X-250190Y-80010D02*
X-250190Y-64153D01*
D40*
X-285984Y-30480D02*
X-291615Y-24849D01*
X-285984Y-30480D02*
X-283210Y-30480D01*
X-276818Y-36872D01*
X-276818Y-37525D01*
D12*
X-223750Y-98830D02*
X-223750Y-113750D01*
X-243840Y-59189D02*
X-271161Y-31868D01*
X-243840Y-78740D02*
X-223750Y-98830D01*
X-243840Y-78740D02*
X-243840Y-59189D01*
D40*
X-283993Y-25400D02*
X-288080Y-21314D01*
X-277629Y-25400D02*
X-271161Y-31868D01*
X-277629Y-25400D02*
X-283993Y-25400D01*
X-282002Y-20320D02*
X-284544Y-17778D01*
X-271396Y-20320D02*
X-265505Y-26211D01*
X-271396Y-20320D02*
X-282002Y-20320D01*
D12*
X-265505Y-26211D02*
X-248028Y-43688D01*
X-247650Y-43688D01*
D43*
X-247650Y-43688D03*
X-377444Y-10668D03*
D12*
X-432308Y-10668D01*
X-450000Y-28360D02*
X-450000Y-43650D01*
X-450000Y-28360D02*
X-432308Y-10668D01*
X211582Y14556D02*
X241671Y44645D01*
X211582Y14556D02*
X211582Y-76200D01*
X98298Y-189484D01*
X-94488Y-189484D01*
X-204470Y-79502D02*
X-204470Y-38608D01*
X-205740Y-37338D01*
D43*
X-205740Y-37338D03*
D12*
X-204470Y-79502D02*
X-94488Y-189484D01*
D40*
X-267697Y-14243D02*
X-281009Y-14243D01*
X-261386Y-20554D02*
X-259848Y-20554D01*
X-261386Y-20554D02*
X-267697Y-14243D01*
D12*
X-259848Y-20554D02*
X-244588Y-35814D01*
X-240030Y-35814D01*
D43*
X-240030Y-35814D03*
X-384302Y-3048D03*
D12*
X-454406Y-3048D01*
X-488188Y-36830D01*
X-488188Y-64008D01*
X-483146Y-69050D02*
X-475400Y-69050D01*
X-483146Y-69050D02*
X-488188Y-64008D01*
D43*
X219964Y44958D03*
D12*
X201676Y26670D01*
X-197612Y-33782D02*
X-197612Y-78486D01*
X-197612Y-33782D02*
X-202184Y-29210D01*
X-233426Y-29210D02*
X-240030Y-35814D01*
X201676Y-71120D02*
X201676Y26670D01*
X201676Y-71120D02*
X90424Y-182372D01*
X-93726Y-182372D01*
X-197612Y-78486D01*
X-202184Y-29210D02*
X-233426Y-29210D01*
D40*
X-266159Y-5757D02*
X-281009Y-5757D01*
X-266159Y-5757D02*
X-259848Y554D01*
D12*
X-250242Y10160D01*
X-249298Y10160D01*
D43*
X-249298Y10160D03*
X-377952Y5870D03*
D12*
X-454632Y5870D01*
X-494030Y-33528D01*
X-494030Y-71120D01*
X-481330Y-83820D02*
X-462280Y-83820D01*
X-450000Y-71540D01*
X-450000Y-69050D01*
X-481330Y-83820D02*
X-494030Y-71120D01*
D43*
X-486664Y-325882D03*
D12*
X-486410Y-326136D01*
X-482546Y-330000D01*
X-470500Y-330000D01*
X-450000Y-73748D02*
X-450000Y-69050D01*
X-450000Y-73748D02*
X-428752Y-94996D01*
X-428752Y-256794D01*
X-443992Y-272034D02*
X-492252Y-272034D01*
X-498602Y-278384D01*
X-498602Y-316738D01*
X-489204Y-326136D01*
X-486410Y-326136D01*
X-443992Y-272034D02*
X-428752Y-256794D01*
X441760Y-330000D02*
X449500Y-330000D01*
X441760Y-330000D02*
X434848Y-323088D01*
D43*
X434848Y-323088D03*
D12*
X399542Y-287782D01*
X177292Y-287782D02*
X176784Y-288290D01*
D43*
X176784Y-288290D03*
D12*
X177292Y-287782D02*
X399542Y-287782D01*
D43*
X-431800Y-280670D03*
D12*
X-440436Y-272034D01*
X-443992Y-272034D01*
X-210750Y-113750D02*
X-207772Y-113750D01*
X-204250Y-113750D01*
D44*
X285500Y-100000D02*
X323088Y-100000D01*
X329200Y-100000D01*
X337200Y-108000D01*
X349200Y-108000D01*
X373380Y-83820D01*
X401320Y-83820D01*
X415000Y-70140D01*
X415000Y-50000D01*
X-207772Y-113750D02*
X-207772Y-129540D01*
X-201312Y-136000D02*
X-180000Y-136000D01*
X-204470Y-132842D02*
X-207772Y-129540D01*
X-204470Y-132842D02*
X-201312Y-136000D01*
X285500Y-112018D02*
X285500Y-100000D01*
X262890Y-204216D02*
X229108Y-204216D01*
D47*
X229108Y-204216D03*
X160020Y-204216D03*
D44*
X-95250Y-204216D01*
X-163466Y-136000D02*
X-180000Y-136000D01*
X285500Y-112018D02*
X296672Y-123190D01*
X296672Y-170434D01*
X262890Y-204216D01*
X-95250Y-204216D02*
X-163466Y-136000D01*
D46*
X280000Y140000D02*
X290368Y150368D01*
X313436Y150368D01*
X341630Y122174D01*
X341630Y121158D01*
D45*
X341630Y121158D03*
X323088Y-100000D03*
D41*
X-275750Y-113750D02*
X-275750Y-126078D01*
X-268732Y-133096D02*
X-246126Y-133096D01*
D43*
X-246126Y-133096D03*
X-227584Y-133350D03*
D41*
X-211582Y-133350D01*
X-207772Y-129540D01*
X-268732Y-133096D02*
X-275750Y-126078D01*
X-211582Y-133350D02*
X-204978Y-133350D01*
X-204470Y-132842D01*
D45*
X-182372Y-116332D03*
D44*
X-180000Y-118704D01*
X-180000Y-136000D01*
D12*
X-209787Y-10127D02*
X-210058Y-9856D01*
X-210058Y4572D01*
D43*
X-210058Y4572D03*
D44*
X140000Y-323500D02*
X140000Y-356500D01*
X140000Y-323500D02*
X140000Y-301960D01*
X200660Y-241300D02*
X200660Y-207010D01*
X224790Y-182880D01*
X257810Y-182880D01*
X278130Y-162560D01*
X278130Y-130810D02*
X247320Y-100000D01*
X234500Y-100000D01*
X200660Y-241300D02*
X140000Y-301960D01*
X278130Y-162560D02*
X278130Y-130810D01*
D12*
X469500Y-300000D02*
X469500Y-329000D01*
X470500Y-330000D01*
X-449500Y-301000D02*
X-450500Y-300000D01*
X-449500Y-301000D02*
X-449500Y-330000D01*
D41*
X-275750Y-186250D02*
X-272542Y-186250D01*
X-269250Y-186250D01*
D44*
X-272542Y-195942D02*
X-313200Y-236600D01*
X-272542Y-195942D02*
X-272542Y-186250D01*
D41*
X-249750Y-186250D02*
X-246634Y-186250D01*
X-243250Y-186250D01*
D44*
X-246634Y-225406D02*
X-283228Y-262000D01*
X-313200Y-262000D01*
X-246634Y-225406D02*
X-246634Y-186250D01*
D41*
X-236750Y-186250D02*
X-233172Y-186250D01*
X-230250Y-186250D01*
D44*
X-233172Y-186250D02*
X-233172Y-204724D01*
X-194310Y-243586D01*
X139446Y-243586D01*
D47*
X139446Y-243586D03*
D41*
X-207518Y-186250D02*
X-210750Y-186250D01*
X-207518Y-186250D02*
X-204250Y-186250D01*
D44*
X-207518Y-186250D02*
X-207518Y-201422D01*
X-183642Y-225298D01*
X158750Y-225298D01*
D47*
X158750Y-225298D03*
D12*
X-384416Y26670D02*
X-418158Y60412D01*
X-418158Y71842D01*
X-384416Y26670D02*
X-379730Y26670D01*
D43*
X-379730Y26670D03*
X240792Y112268D03*
D12*
X240792Y138430D01*
X236222Y143000D02*
X228500Y143000D01*
X236222Y143000D02*
X240792Y138430D01*
X-243250Y-101162D02*
X-243250Y-113750D01*
X-243250Y-101162D02*
X-241429Y-99341D01*
D43*
X-241429Y-99341D03*
D44*
X177300Y-150000D02*
X177300Y-235450D01*
X115000Y-297750D02*
X115000Y-323500D01*
X115000Y-297750D02*
X177300Y-235450D01*
X115000Y-323500D02*
X115000Y-356500D01*
X177300Y-150000D02*
X177300Y-131818D01*
X227300Y-132558D02*
X227300Y-150000D01*
X186690Y-122428D02*
X177300Y-131818D01*
X186690Y-122428D02*
X217170Y-122428D01*
X227300Y-132558D01*
D12*
X-644500Y66000D02*
X-659400Y66000D01*
X-644500Y66000D02*
X-644500Y34713D01*
X-651900Y27313D02*
X-651900Y2000D01*
X-651900Y27313D02*
X-644500Y34713D01*
X-631800Y45300D02*
X-631800Y54677D01*
X-628430Y58047D01*
X-628430Y65070D01*
X-627500Y66000D01*
X-677300Y14867D02*
X-677300Y2000D01*
X-672300Y19867D02*
X-672300Y26200D01*
X-672300Y19867D02*
X-677300Y14867D01*
X-653729Y43329D02*
X-676400Y66000D01*
X-672148Y26352D02*
X-659769Y26352D01*
X-672148Y26352D02*
X-672300Y26200D01*
X-653729Y32393D02*
X-653729Y43329D01*
X-653729Y32393D02*
X-659769Y26352D01*
X-626500Y13317D02*
X-626500Y2000D01*
X-631800Y18617D02*
X-631800Y26200D01*
X-631800Y18617D02*
X-626500Y13317D01*
X-631800Y26200D02*
X-643752Y26200D01*
X-643543Y25992D01*
D43*
X-643543Y25992D03*
D12*
X-661933Y35669D02*
X-662669Y35669D01*
X-672300Y45300D01*
D43*
X-661933Y35669D03*
D12*
X640600Y66000D02*
X655500Y66000D01*
X655500Y34713D01*
X648100Y27313D02*
X648100Y2000D01*
X648100Y27313D02*
X655500Y34713D01*
X668200Y45300D02*
X668200Y54677D01*
X671570Y58047D01*
X671570Y65070D01*
X672500Y66000D01*
X622700Y14867D02*
X622700Y2000D01*
X627700Y19867D02*
X627700Y26200D01*
X627700Y19867D02*
X622700Y14867D01*
X646271Y43329D02*
X623600Y66000D01*
X627852Y26352D02*
X640231Y26352D01*
X627852Y26352D02*
X627700Y26200D01*
X646271Y32393D02*
X646271Y43329D01*
X646271Y32393D02*
X640231Y26352D01*
X673500Y13317D02*
X673500Y2000D01*
X668200Y18617D02*
X668200Y26200D01*
X668200Y18617D02*
X673500Y13317D01*
X668200Y26200D02*
X656248Y26200D01*
X656457Y25992D01*
D43*
X656457Y25992D03*
D12*
X638067Y35669D02*
X637331Y35669D01*
X627700Y45300D01*
D43*
X638067Y35669D03*
D12*
X-436000Y210600D02*
X-436000Y225500D01*
X-404713Y225500D01*
X-397313Y218100D02*
X-372000Y218100D01*
X-397313Y218100D02*
X-404713Y225500D01*
X-415300Y238200D02*
X-424677Y238200D01*
X-428047Y241570D01*
X-435070Y241570D01*
X-436000Y242500D01*
X-384867Y192700D02*
X-372000Y192700D01*
X-389867Y197700D02*
X-396200Y197700D01*
X-389867Y197700D02*
X-384867Y192700D01*
X-413329Y216271D02*
X-436000Y193600D01*
X-396352Y197852D02*
X-396352Y210231D01*
X-396352Y197852D02*
X-396200Y197700D01*
X-402393Y216271D02*
X-413329Y216271D01*
X-402393Y216271D02*
X-396352Y210231D01*
X-383317Y243500D02*
X-372000Y243500D01*
X-388617Y238200D02*
X-396200Y238200D01*
X-388617Y238200D02*
X-383317Y243500D01*
X-396200Y238200D02*
X-396200Y226248D01*
X-395992Y226457D01*
D43*
X-395992Y226457D03*
D12*
X-405669Y208067D02*
X-405669Y207331D01*
X-415300Y197700D01*
D43*
X-405669Y208067D03*
D12*
X436000Y214500D02*
X436000Y229400D01*
X436000Y214500D02*
X404713Y214500D01*
X397313Y221900D02*
X372000Y221900D01*
X397313Y221900D02*
X404713Y214500D01*
X415300Y201800D02*
X424677Y201800D01*
X428047Y198430D01*
X435070Y198430D01*
X436000Y197500D01*
X384867Y247300D02*
X372000Y247300D01*
X389867Y242300D02*
X396200Y242300D01*
X389867Y242300D02*
X384867Y247300D01*
X413329Y223729D02*
X436000Y246400D01*
X396352Y242148D02*
X396352Y229769D01*
X396352Y242148D02*
X396200Y242300D01*
X402393Y223729D02*
X413329Y223729D01*
X402393Y223729D02*
X396352Y229769D01*
X383317Y196500D02*
X372000Y196500D01*
X388617Y201800D02*
X396200Y201800D01*
X388617Y201800D02*
X383317Y196500D01*
X396200Y201800D02*
X396200Y213752D01*
X395992Y213543D01*
D43*
X395992Y213543D03*
D12*
X405669Y231933D02*
X405669Y232669D01*
X415300Y242300D01*
D43*
X405669Y231933D03*
M02*
