G04 EAGLE Gerber RS-274X export*
G75*
%MOMM*%
%FSLAX34Y34*%
%LPD*%
%IN*%
%IPPOS*%
%AMOC8*
5,1,8,0,0,1.08239X$1,22.5*%
G01*
%ADD10C,0.254000*%


D10*
X-720000Y-300000D02*
X-690000Y-330000D01*
X-630000Y-330000D01*
X-600000Y-300000D01*
X-540000Y-300000D01*
X-490000Y-350000D01*
X-430000Y-350000D01*
X-380000Y-300000D01*
X-340000Y-300000D01*
X-260000Y-380000D01*
X260000Y-380000D01*
X340000Y-300000D01*
X380000Y-300000D01*
X430000Y-350000D01*
X490000Y-350000D01*
X540000Y-300000D01*
X600000Y-300000D01*
X630000Y-330000D01*
X690000Y-330000D01*
X720000Y-300000D01*
X720000Y-60000D01*
X690000Y-30000D01*
X670000Y-30000D01*
X670000Y-10000D01*
X686200Y-10000D01*
X686200Y117000D01*
X610000Y117000D01*
X610000Y-10000D01*
X630000Y-10000D01*
X630000Y-30000D01*
X600000Y-30000D01*
X550000Y20000D01*
X500000Y20000D01*
X340000Y180000D01*
X340000Y200000D01*
X360000Y200000D01*
X360000Y183800D01*
X487000Y183800D01*
X487000Y260000D01*
X360000Y260000D01*
X360000Y240000D01*
X340000Y240000D01*
X340000Y250000D01*
X330000Y260000D01*
X280000Y260000D01*
X270000Y250000D01*
X270000Y230000D01*
X220000Y280000D01*
X120000Y280000D01*
X70000Y330000D01*
X-70000Y330000D01*
X-120000Y280000D01*
X-220000Y280000D01*
X-270000Y230000D01*
X-270000Y250000D01*
X-280000Y260000D01*
X-330000Y260000D01*
X-340000Y250000D01*
X-340000Y240000D01*
X-360000Y240000D01*
X-360000Y256200D01*
X-487000Y256200D01*
X-487000Y180000D01*
X-360000Y180000D01*
X-360000Y200000D01*
X-340000Y200000D01*
X-340000Y180000D01*
X-500000Y20000D01*
X-550000Y20000D01*
X-600000Y-30000D01*
X-630000Y-30000D01*
X-630000Y-10000D01*
X-613800Y-10000D01*
X-613800Y117000D01*
X-690000Y117000D01*
X-690000Y-10000D01*
X-670000Y-10000D01*
X-670000Y-30000D01*
X-690000Y-30000D01*
X-720000Y-60000D01*
X-720000Y-300000D01*
X510000Y-256825D02*
X510012Y-257102D01*
X510048Y-257376D01*
X510108Y-257647D01*
X510191Y-257911D01*
X510297Y-258167D01*
X510425Y-258413D01*
X510574Y-258646D01*
X510743Y-258866D01*
X510930Y-259070D01*
X511134Y-259257D01*
X511354Y-259426D01*
X511588Y-259575D01*
X511833Y-259703D01*
X512089Y-259809D01*
X512353Y-259892D01*
X512624Y-259952D01*
X512898Y-259988D01*
X513175Y-260000D01*
X536825Y-260000D01*
X537102Y-259988D01*
X537376Y-259952D01*
X537647Y-259892D01*
X537911Y-259809D01*
X538167Y-259703D01*
X538413Y-259575D01*
X538646Y-259426D01*
X538866Y-259257D01*
X539070Y-259070D01*
X539257Y-258866D01*
X539426Y-258646D01*
X539575Y-258413D01*
X539703Y-258167D01*
X539809Y-257911D01*
X539892Y-257647D01*
X539952Y-257376D01*
X539988Y-257102D01*
X540000Y-256825D01*
X540000Y-253175D01*
X539988Y-252898D01*
X539952Y-252624D01*
X539892Y-252353D01*
X539809Y-252089D01*
X539703Y-251833D01*
X539575Y-251588D01*
X539426Y-251354D01*
X539257Y-251134D01*
X539070Y-250930D01*
X538866Y-250743D01*
X538646Y-250574D01*
X538413Y-250425D01*
X538167Y-250297D01*
X537911Y-250191D01*
X537647Y-250108D01*
X537376Y-250048D01*
X537102Y-250012D01*
X536825Y-250000D01*
X513175Y-250000D01*
X512898Y-250012D01*
X512624Y-250048D01*
X512353Y-250108D01*
X512089Y-250191D01*
X511833Y-250297D01*
X511588Y-250425D01*
X511354Y-250574D01*
X511134Y-250743D01*
X510930Y-250930D01*
X510743Y-251134D01*
X510574Y-251354D01*
X510425Y-251588D01*
X510297Y-251833D01*
X510191Y-252089D01*
X510108Y-252353D01*
X510048Y-252624D01*
X510012Y-252898D01*
X510000Y-253175D01*
X510000Y-256825D01*
X510000Y-106825D02*
X510012Y-107102D01*
X510048Y-107376D01*
X510108Y-107647D01*
X510191Y-107911D01*
X510297Y-108167D01*
X510425Y-108413D01*
X510574Y-108646D01*
X510743Y-108866D01*
X510930Y-109070D01*
X511134Y-109257D01*
X511354Y-109426D01*
X511588Y-109575D01*
X511833Y-109703D01*
X512089Y-109809D01*
X512353Y-109892D01*
X512624Y-109952D01*
X512898Y-109988D01*
X513175Y-110000D01*
X536825Y-110000D01*
X537102Y-109988D01*
X537376Y-109952D01*
X537647Y-109892D01*
X537911Y-109809D01*
X538167Y-109703D01*
X538413Y-109575D01*
X538646Y-109426D01*
X538866Y-109257D01*
X539070Y-109070D01*
X539257Y-108866D01*
X539426Y-108646D01*
X539575Y-108413D01*
X539703Y-108167D01*
X539809Y-107911D01*
X539892Y-107647D01*
X539952Y-107376D01*
X539988Y-107102D01*
X540000Y-106825D01*
X540000Y-103175D01*
X539988Y-102898D01*
X539952Y-102624D01*
X539892Y-102353D01*
X539809Y-102089D01*
X539703Y-101833D01*
X539575Y-101588D01*
X539426Y-101354D01*
X539257Y-101134D01*
X539070Y-100930D01*
X538866Y-100743D01*
X538646Y-100574D01*
X538413Y-100425D01*
X538167Y-100297D01*
X537911Y-100191D01*
X537647Y-100108D01*
X537376Y-100048D01*
X537102Y-100012D01*
X536825Y-100000D01*
X513175Y-100000D01*
X512898Y-100012D01*
X512624Y-100048D01*
X512353Y-100108D01*
X512089Y-100191D01*
X511833Y-100297D01*
X511588Y-100425D01*
X511354Y-100574D01*
X511134Y-100743D01*
X510930Y-100930D01*
X510743Y-101134D01*
X510574Y-101354D01*
X510425Y-101588D01*
X510297Y-101833D01*
X510191Y-102089D01*
X510108Y-102353D01*
X510048Y-102624D01*
X510012Y-102898D01*
X510000Y-103175D01*
X510000Y-106825D01*
X570000Y-106825D02*
X570012Y-107102D01*
X570048Y-107376D01*
X570108Y-107647D01*
X570191Y-107911D01*
X570297Y-108167D01*
X570425Y-108413D01*
X570574Y-108646D01*
X570743Y-108866D01*
X570930Y-109070D01*
X571134Y-109257D01*
X571354Y-109426D01*
X571588Y-109575D01*
X571833Y-109703D01*
X572089Y-109809D01*
X572353Y-109892D01*
X572624Y-109952D01*
X572898Y-109988D01*
X573175Y-110000D01*
X596825Y-110000D01*
X597102Y-109988D01*
X597376Y-109952D01*
X597647Y-109892D01*
X597911Y-109809D01*
X598167Y-109703D01*
X598413Y-109575D01*
X598646Y-109426D01*
X598866Y-109257D01*
X599070Y-109070D01*
X599257Y-108866D01*
X599426Y-108646D01*
X599575Y-108413D01*
X599703Y-108167D01*
X599809Y-107911D01*
X599892Y-107647D01*
X599952Y-107376D01*
X599988Y-107102D01*
X600000Y-106825D01*
X600000Y-103175D01*
X599988Y-102898D01*
X599952Y-102624D01*
X599892Y-102353D01*
X599809Y-102089D01*
X599703Y-101833D01*
X599575Y-101588D01*
X599426Y-101354D01*
X599257Y-101134D01*
X599070Y-100930D01*
X598866Y-100743D01*
X598646Y-100574D01*
X598413Y-100425D01*
X598167Y-100297D01*
X597911Y-100191D01*
X597647Y-100108D01*
X597376Y-100048D01*
X597102Y-100012D01*
X596825Y-100000D01*
X573175Y-100000D01*
X572898Y-100012D01*
X572624Y-100048D01*
X572353Y-100108D01*
X572089Y-100191D01*
X571833Y-100297D01*
X571588Y-100425D01*
X571354Y-100574D01*
X571134Y-100743D01*
X570930Y-100930D01*
X570743Y-101134D01*
X570574Y-101354D01*
X570425Y-101588D01*
X570297Y-101833D01*
X570191Y-102089D01*
X570108Y-102353D01*
X570048Y-102624D01*
X570012Y-102898D01*
X570000Y-103175D01*
X570000Y-106825D01*
X570000Y-256825D02*
X570012Y-257102D01*
X570048Y-257376D01*
X570108Y-257647D01*
X570191Y-257911D01*
X570297Y-258167D01*
X570425Y-258413D01*
X570574Y-258646D01*
X570743Y-258866D01*
X570930Y-259070D01*
X571134Y-259257D01*
X571354Y-259426D01*
X571588Y-259575D01*
X571833Y-259703D01*
X572089Y-259809D01*
X572353Y-259892D01*
X572624Y-259952D01*
X572898Y-259988D01*
X573175Y-260000D01*
X596825Y-260000D01*
X597102Y-259988D01*
X597376Y-259952D01*
X597647Y-259892D01*
X597911Y-259809D01*
X598167Y-259703D01*
X598413Y-259575D01*
X598646Y-259426D01*
X598866Y-259257D01*
X599070Y-259070D01*
X599257Y-258866D01*
X599426Y-258646D01*
X599575Y-258413D01*
X599703Y-258167D01*
X599809Y-257911D01*
X599892Y-257647D01*
X599952Y-257376D01*
X599988Y-257102D01*
X600000Y-256825D01*
X600000Y-253175D01*
X599988Y-252898D01*
X599952Y-252624D01*
X599892Y-252353D01*
X599809Y-252089D01*
X599703Y-251833D01*
X599575Y-251588D01*
X599426Y-251354D01*
X599257Y-251134D01*
X599070Y-250930D01*
X598866Y-250743D01*
X598646Y-250574D01*
X598413Y-250425D01*
X598167Y-250297D01*
X597911Y-250191D01*
X597647Y-250108D01*
X597376Y-250048D01*
X597102Y-250012D01*
X596825Y-250000D01*
X573175Y-250000D01*
X572898Y-250012D01*
X572624Y-250048D01*
X572353Y-250108D01*
X572089Y-250191D01*
X571833Y-250297D01*
X571588Y-250425D01*
X571354Y-250574D01*
X571134Y-250743D01*
X570930Y-250930D01*
X570743Y-251134D01*
X570574Y-251354D01*
X570425Y-251588D01*
X570297Y-251833D01*
X570191Y-252089D01*
X570108Y-252353D01*
X570048Y-252624D01*
X570012Y-252898D01*
X570000Y-253175D01*
X570000Y-256825D01*
X450000Y-256825D02*
X450012Y-257102D01*
X450048Y-257376D01*
X450108Y-257647D01*
X450191Y-257911D01*
X450297Y-258167D01*
X450425Y-258413D01*
X450574Y-258646D01*
X450743Y-258866D01*
X450930Y-259070D01*
X451134Y-259257D01*
X451354Y-259426D01*
X451588Y-259575D01*
X451833Y-259703D01*
X452089Y-259809D01*
X452353Y-259892D01*
X452624Y-259952D01*
X452898Y-259988D01*
X453175Y-260000D01*
X476825Y-260000D01*
X477102Y-259988D01*
X477376Y-259952D01*
X477647Y-259892D01*
X477911Y-259809D01*
X478167Y-259703D01*
X478413Y-259575D01*
X478646Y-259426D01*
X478866Y-259257D01*
X479070Y-259070D01*
X479257Y-258866D01*
X479426Y-258646D01*
X479575Y-258413D01*
X479703Y-258167D01*
X479809Y-257911D01*
X479892Y-257647D01*
X479952Y-257376D01*
X479988Y-257102D01*
X480000Y-256825D01*
X480000Y-253175D01*
X479988Y-252898D01*
X479952Y-252624D01*
X479892Y-252353D01*
X479809Y-252089D01*
X479703Y-251833D01*
X479575Y-251588D01*
X479426Y-251354D01*
X479257Y-251134D01*
X479070Y-250930D01*
X478866Y-250743D01*
X478646Y-250574D01*
X478413Y-250425D01*
X478167Y-250297D01*
X477911Y-250191D01*
X477647Y-250108D01*
X477376Y-250048D01*
X477102Y-250012D01*
X476825Y-250000D01*
X453175Y-250000D01*
X452898Y-250012D01*
X452624Y-250048D01*
X452353Y-250108D01*
X452089Y-250191D01*
X451833Y-250297D01*
X451588Y-250425D01*
X451354Y-250574D01*
X451134Y-250743D01*
X450930Y-250930D01*
X450743Y-251134D01*
X450574Y-251354D01*
X450425Y-251588D01*
X450297Y-251833D01*
X450191Y-252089D01*
X450108Y-252353D01*
X450048Y-252624D01*
X450012Y-252898D01*
X450000Y-253175D01*
X450000Y-256825D01*
X450000Y-106825D02*
X450012Y-107102D01*
X450048Y-107376D01*
X450108Y-107647D01*
X450191Y-107911D01*
X450297Y-108167D01*
X450425Y-108413D01*
X450574Y-108646D01*
X450743Y-108866D01*
X450930Y-109070D01*
X451134Y-109257D01*
X451354Y-109426D01*
X451588Y-109575D01*
X451833Y-109703D01*
X452089Y-109809D01*
X452353Y-109892D01*
X452624Y-109952D01*
X452898Y-109988D01*
X453175Y-110000D01*
X476825Y-110000D01*
X477102Y-109988D01*
X477376Y-109952D01*
X477647Y-109892D01*
X477911Y-109809D01*
X478167Y-109703D01*
X478413Y-109575D01*
X478646Y-109426D01*
X478866Y-109257D01*
X479070Y-109070D01*
X479257Y-108866D01*
X479426Y-108646D01*
X479575Y-108413D01*
X479703Y-108167D01*
X479809Y-107911D01*
X479892Y-107647D01*
X479952Y-107376D01*
X479988Y-107102D01*
X480000Y-106825D01*
X480000Y-103175D01*
X479988Y-102898D01*
X479952Y-102624D01*
X479892Y-102353D01*
X479809Y-102089D01*
X479703Y-101833D01*
X479575Y-101588D01*
X479426Y-101354D01*
X479257Y-101134D01*
X479070Y-100930D01*
X478866Y-100743D01*
X478646Y-100574D01*
X478413Y-100425D01*
X478167Y-100297D01*
X477911Y-100191D01*
X477647Y-100108D01*
X477376Y-100048D01*
X477102Y-100012D01*
X476825Y-100000D01*
X453175Y-100000D01*
X452898Y-100012D01*
X452624Y-100048D01*
X452353Y-100108D01*
X452089Y-100191D01*
X451833Y-100297D01*
X451588Y-100425D01*
X451354Y-100574D01*
X451134Y-100743D01*
X450930Y-100930D01*
X450743Y-101134D01*
X450574Y-101354D01*
X450425Y-101588D01*
X450297Y-101833D01*
X450191Y-102089D01*
X450108Y-102353D01*
X450048Y-102624D01*
X450012Y-102898D01*
X450000Y-103175D01*
X450000Y-106825D01*
X-540000Y-256825D02*
X-539988Y-257102D01*
X-539952Y-257376D01*
X-539892Y-257647D01*
X-539809Y-257911D01*
X-539703Y-258167D01*
X-539575Y-258413D01*
X-539426Y-258646D01*
X-539257Y-258866D01*
X-539070Y-259070D01*
X-538866Y-259257D01*
X-538646Y-259426D01*
X-538413Y-259575D01*
X-538167Y-259703D01*
X-537911Y-259809D01*
X-537647Y-259892D01*
X-537376Y-259952D01*
X-537102Y-259988D01*
X-536825Y-260000D01*
X-513175Y-260000D01*
X-512898Y-259988D01*
X-512624Y-259952D01*
X-512353Y-259892D01*
X-512089Y-259809D01*
X-511833Y-259703D01*
X-511588Y-259575D01*
X-511354Y-259426D01*
X-511134Y-259257D01*
X-510930Y-259070D01*
X-510743Y-258866D01*
X-510574Y-258646D01*
X-510425Y-258413D01*
X-510297Y-258167D01*
X-510191Y-257911D01*
X-510108Y-257647D01*
X-510048Y-257376D01*
X-510012Y-257102D01*
X-510000Y-256825D01*
X-510000Y-253175D01*
X-510012Y-252898D01*
X-510048Y-252624D01*
X-510108Y-252353D01*
X-510191Y-252089D01*
X-510297Y-251833D01*
X-510425Y-251588D01*
X-510574Y-251354D01*
X-510743Y-251134D01*
X-510930Y-250930D01*
X-511134Y-250743D01*
X-511354Y-250574D01*
X-511588Y-250425D01*
X-511833Y-250297D01*
X-512089Y-250191D01*
X-512353Y-250108D01*
X-512624Y-250048D01*
X-512898Y-250012D01*
X-513175Y-250000D01*
X-536825Y-250000D01*
X-537102Y-250012D01*
X-537376Y-250048D01*
X-537647Y-250108D01*
X-537911Y-250191D01*
X-538167Y-250297D01*
X-538413Y-250425D01*
X-538646Y-250574D01*
X-538866Y-250743D01*
X-539070Y-250930D01*
X-539257Y-251134D01*
X-539426Y-251354D01*
X-539575Y-251588D01*
X-539703Y-251833D01*
X-539809Y-252089D01*
X-539892Y-252353D01*
X-539952Y-252624D01*
X-539988Y-252898D01*
X-540000Y-253175D01*
X-540000Y-256825D01*
X-540000Y-106825D02*
X-539988Y-107102D01*
X-539952Y-107376D01*
X-539892Y-107647D01*
X-539809Y-107911D01*
X-539703Y-108167D01*
X-539575Y-108413D01*
X-539426Y-108646D01*
X-539257Y-108866D01*
X-539070Y-109070D01*
X-538866Y-109257D01*
X-538646Y-109426D01*
X-538413Y-109575D01*
X-538167Y-109703D01*
X-537911Y-109809D01*
X-537647Y-109892D01*
X-537376Y-109952D01*
X-537102Y-109988D01*
X-536825Y-110000D01*
X-513175Y-110000D01*
X-512898Y-109988D01*
X-512624Y-109952D01*
X-512353Y-109892D01*
X-512089Y-109809D01*
X-511833Y-109703D01*
X-511588Y-109575D01*
X-511354Y-109426D01*
X-511134Y-109257D01*
X-510930Y-109070D01*
X-510743Y-108866D01*
X-510574Y-108646D01*
X-510425Y-108413D01*
X-510297Y-108167D01*
X-510191Y-107911D01*
X-510108Y-107647D01*
X-510048Y-107376D01*
X-510012Y-107102D01*
X-510000Y-106825D01*
X-510000Y-103175D01*
X-510012Y-102898D01*
X-510048Y-102624D01*
X-510108Y-102353D01*
X-510191Y-102089D01*
X-510297Y-101833D01*
X-510425Y-101588D01*
X-510574Y-101354D01*
X-510743Y-101134D01*
X-510930Y-100930D01*
X-511134Y-100743D01*
X-511354Y-100574D01*
X-511588Y-100425D01*
X-511833Y-100297D01*
X-512089Y-100191D01*
X-512353Y-100108D01*
X-512624Y-100048D01*
X-512898Y-100012D01*
X-513175Y-100000D01*
X-536825Y-100000D01*
X-537102Y-100012D01*
X-537376Y-100048D01*
X-537647Y-100108D01*
X-537911Y-100191D01*
X-538167Y-100297D01*
X-538413Y-100425D01*
X-538646Y-100574D01*
X-538866Y-100743D01*
X-539070Y-100930D01*
X-539257Y-101134D01*
X-539426Y-101354D01*
X-539575Y-101588D01*
X-539703Y-101833D01*
X-539809Y-102089D01*
X-539892Y-102353D01*
X-539952Y-102624D01*
X-539988Y-102898D01*
X-540000Y-103175D01*
X-540000Y-106825D01*
X-480000Y-106825D02*
X-479988Y-107102D01*
X-479952Y-107376D01*
X-479892Y-107647D01*
X-479809Y-107911D01*
X-479703Y-108167D01*
X-479575Y-108413D01*
X-479426Y-108646D01*
X-479257Y-108866D01*
X-479070Y-109070D01*
X-478866Y-109257D01*
X-478646Y-109426D01*
X-478413Y-109575D01*
X-478167Y-109703D01*
X-477911Y-109809D01*
X-477647Y-109892D01*
X-477376Y-109952D01*
X-477102Y-109988D01*
X-476825Y-110000D01*
X-453175Y-110000D01*
X-452898Y-109988D01*
X-452624Y-109952D01*
X-452353Y-109892D01*
X-452089Y-109809D01*
X-451833Y-109703D01*
X-451588Y-109575D01*
X-451354Y-109426D01*
X-451134Y-109257D01*
X-450930Y-109070D01*
X-450743Y-108866D01*
X-450574Y-108646D01*
X-450425Y-108413D01*
X-450297Y-108167D01*
X-450191Y-107911D01*
X-450108Y-107647D01*
X-450048Y-107376D01*
X-450012Y-107102D01*
X-450000Y-106825D01*
X-450000Y-103175D01*
X-450012Y-102898D01*
X-450048Y-102624D01*
X-450108Y-102353D01*
X-450191Y-102089D01*
X-450297Y-101833D01*
X-450425Y-101588D01*
X-450574Y-101354D01*
X-450743Y-101134D01*
X-450930Y-100930D01*
X-451134Y-100743D01*
X-451354Y-100574D01*
X-451588Y-100425D01*
X-451833Y-100297D01*
X-452089Y-100191D01*
X-452353Y-100108D01*
X-452624Y-100048D01*
X-452898Y-100012D01*
X-453175Y-100000D01*
X-476825Y-100000D01*
X-477102Y-100012D01*
X-477376Y-100048D01*
X-477647Y-100108D01*
X-477911Y-100191D01*
X-478167Y-100297D01*
X-478413Y-100425D01*
X-478646Y-100574D01*
X-478866Y-100743D01*
X-479070Y-100930D01*
X-479257Y-101134D01*
X-479426Y-101354D01*
X-479575Y-101588D01*
X-479703Y-101833D01*
X-479809Y-102089D01*
X-479892Y-102353D01*
X-479952Y-102624D01*
X-479988Y-102898D01*
X-480000Y-103175D01*
X-480000Y-106825D01*
X-480000Y-256825D02*
X-479988Y-257102D01*
X-479952Y-257376D01*
X-479892Y-257647D01*
X-479809Y-257911D01*
X-479703Y-258167D01*
X-479575Y-258413D01*
X-479426Y-258646D01*
X-479257Y-258866D01*
X-479070Y-259070D01*
X-478866Y-259257D01*
X-478646Y-259426D01*
X-478413Y-259575D01*
X-478167Y-259703D01*
X-477911Y-259809D01*
X-477647Y-259892D01*
X-477376Y-259952D01*
X-477102Y-259988D01*
X-476825Y-260000D01*
X-453175Y-260000D01*
X-452898Y-259988D01*
X-452624Y-259952D01*
X-452353Y-259892D01*
X-452089Y-259809D01*
X-451833Y-259703D01*
X-451588Y-259575D01*
X-451354Y-259426D01*
X-451134Y-259257D01*
X-450930Y-259070D01*
X-450743Y-258866D01*
X-450574Y-258646D01*
X-450425Y-258413D01*
X-450297Y-258167D01*
X-450191Y-257911D01*
X-450108Y-257647D01*
X-450048Y-257376D01*
X-450012Y-257102D01*
X-450000Y-256825D01*
X-450000Y-253175D01*
X-450012Y-252898D01*
X-450048Y-252624D01*
X-450108Y-252353D01*
X-450191Y-252089D01*
X-450297Y-251833D01*
X-450425Y-251588D01*
X-450574Y-251354D01*
X-450743Y-251134D01*
X-450930Y-250930D01*
X-451134Y-250743D01*
X-451354Y-250574D01*
X-451588Y-250425D01*
X-451833Y-250297D01*
X-452089Y-250191D01*
X-452353Y-250108D01*
X-452624Y-250048D01*
X-452898Y-250012D01*
X-453175Y-250000D01*
X-476825Y-250000D01*
X-477102Y-250012D01*
X-477376Y-250048D01*
X-477647Y-250108D01*
X-477911Y-250191D01*
X-478167Y-250297D01*
X-478413Y-250425D01*
X-478646Y-250574D01*
X-478866Y-250743D01*
X-479070Y-250930D01*
X-479257Y-251134D01*
X-479426Y-251354D01*
X-479575Y-251588D01*
X-479703Y-251833D01*
X-479809Y-252089D01*
X-479892Y-252353D01*
X-479952Y-252624D01*
X-479988Y-252898D01*
X-480000Y-253175D01*
X-480000Y-256825D01*
X-600000Y-256825D02*
X-599988Y-257102D01*
X-599952Y-257376D01*
X-599892Y-257647D01*
X-599809Y-257911D01*
X-599703Y-258167D01*
X-599575Y-258413D01*
X-599426Y-258646D01*
X-599257Y-258866D01*
X-599070Y-259070D01*
X-598866Y-259257D01*
X-598646Y-259426D01*
X-598413Y-259575D01*
X-598167Y-259703D01*
X-597911Y-259809D01*
X-597647Y-259892D01*
X-597376Y-259952D01*
X-597102Y-259988D01*
X-596825Y-260000D01*
X-573175Y-260000D01*
X-572898Y-259988D01*
X-572624Y-259952D01*
X-572353Y-259892D01*
X-572089Y-259809D01*
X-571833Y-259703D01*
X-571588Y-259575D01*
X-571354Y-259426D01*
X-571134Y-259257D01*
X-570930Y-259070D01*
X-570743Y-258866D01*
X-570574Y-258646D01*
X-570425Y-258413D01*
X-570297Y-258167D01*
X-570191Y-257911D01*
X-570108Y-257647D01*
X-570048Y-257376D01*
X-570012Y-257102D01*
X-570000Y-256825D01*
X-570000Y-253175D01*
X-570012Y-252898D01*
X-570048Y-252624D01*
X-570108Y-252353D01*
X-570191Y-252089D01*
X-570297Y-251833D01*
X-570425Y-251588D01*
X-570574Y-251354D01*
X-570743Y-251134D01*
X-570930Y-250930D01*
X-571134Y-250743D01*
X-571354Y-250574D01*
X-571588Y-250425D01*
X-571833Y-250297D01*
X-572089Y-250191D01*
X-572353Y-250108D01*
X-572624Y-250048D01*
X-572898Y-250012D01*
X-573175Y-250000D01*
X-596825Y-250000D01*
X-597102Y-250012D01*
X-597376Y-250048D01*
X-597647Y-250108D01*
X-597911Y-250191D01*
X-598167Y-250297D01*
X-598413Y-250425D01*
X-598646Y-250574D01*
X-598866Y-250743D01*
X-599070Y-250930D01*
X-599257Y-251134D01*
X-599426Y-251354D01*
X-599575Y-251588D01*
X-599703Y-251833D01*
X-599809Y-252089D01*
X-599892Y-252353D01*
X-599952Y-252624D01*
X-599988Y-252898D01*
X-600000Y-253175D01*
X-600000Y-256825D01*
X-600000Y-106825D02*
X-599988Y-107102D01*
X-599952Y-107376D01*
X-599892Y-107647D01*
X-599809Y-107911D01*
X-599703Y-108167D01*
X-599575Y-108413D01*
X-599426Y-108646D01*
X-599257Y-108866D01*
X-599070Y-109070D01*
X-598866Y-109257D01*
X-598646Y-109426D01*
X-598413Y-109575D01*
X-598167Y-109703D01*
X-597911Y-109809D01*
X-597647Y-109892D01*
X-597376Y-109952D01*
X-597102Y-109988D01*
X-596825Y-110000D01*
X-573175Y-110000D01*
X-572898Y-109988D01*
X-572624Y-109952D01*
X-572353Y-109892D01*
X-572089Y-109809D01*
X-571833Y-109703D01*
X-571588Y-109575D01*
X-571354Y-109426D01*
X-571134Y-109257D01*
X-570930Y-109070D01*
X-570743Y-108866D01*
X-570574Y-108646D01*
X-570425Y-108413D01*
X-570297Y-108167D01*
X-570191Y-107911D01*
X-570108Y-107647D01*
X-570048Y-107376D01*
X-570012Y-107102D01*
X-570000Y-106825D01*
X-570000Y-103175D01*
X-570012Y-102898D01*
X-570048Y-102624D01*
X-570108Y-102353D01*
X-570191Y-102089D01*
X-570297Y-101833D01*
X-570425Y-101588D01*
X-570574Y-101354D01*
X-570743Y-101134D01*
X-570930Y-100930D01*
X-571134Y-100743D01*
X-571354Y-100574D01*
X-571588Y-100425D01*
X-571833Y-100297D01*
X-572089Y-100191D01*
X-572353Y-100108D01*
X-572624Y-100048D01*
X-572898Y-100012D01*
X-573175Y-100000D01*
X-596825Y-100000D01*
X-597102Y-100012D01*
X-597376Y-100048D01*
X-597647Y-100108D01*
X-597911Y-100191D01*
X-598167Y-100297D01*
X-598413Y-100425D01*
X-598646Y-100574D01*
X-598866Y-100743D01*
X-599070Y-100930D01*
X-599257Y-101134D01*
X-599426Y-101354D01*
X-599575Y-101588D01*
X-599703Y-101833D01*
X-599809Y-102089D01*
X-599892Y-102353D01*
X-599952Y-102624D01*
X-599988Y-102898D01*
X-600000Y-103175D01*
X-600000Y-106825D01*
X170000Y-2086D02*
X170000Y2086D01*
X169898Y6258D01*
X169693Y10425D01*
X169386Y14587D01*
X168977Y18739D01*
X168466Y22880D01*
X167854Y27008D01*
X167141Y31119D01*
X166326Y35212D01*
X165412Y39283D01*
X164398Y43330D01*
X163285Y47352D01*
X162074Y51345D01*
X160765Y55307D01*
X159360Y59236D01*
X157858Y63129D01*
X156261Y66984D01*
X154570Y70798D01*
X152786Y74570D01*
X150910Y78297D01*
X148943Y81977D01*
X146886Y85608D01*
X144741Y89187D01*
X142509Y92712D01*
X140191Y96182D01*
X137788Y99593D01*
X135302Y102945D01*
X132735Y106234D01*
X130088Y109460D01*
X127363Y112619D01*
X124561Y115711D01*
X121683Y118733D01*
X118733Y121683D01*
X115711Y124561D01*
X112619Y127363D01*
X109460Y130088D01*
X106234Y132735D01*
X102945Y135302D01*
X99593Y137788D01*
X96182Y140191D01*
X92712Y142509D01*
X89187Y144741D01*
X85608Y146886D01*
X81977Y148943D01*
X78297Y150910D01*
X74570Y152786D01*
X70798Y154570D01*
X66984Y156261D01*
X63129Y157858D01*
X59236Y159360D01*
X55307Y160765D01*
X51345Y162074D01*
X47352Y163285D01*
X43330Y164398D01*
X39283Y165412D01*
X35212Y166326D01*
X31119Y167141D01*
X27008Y167854D01*
X22880Y168466D01*
X18739Y168977D01*
X14587Y169386D01*
X10425Y169693D01*
X6258Y169898D01*
X2086Y170000D01*
X-2086Y170000D01*
X-6258Y169898D01*
X-10425Y169693D01*
X-14587Y169386D01*
X-18739Y168977D01*
X-22880Y168466D01*
X-27008Y167854D01*
X-31119Y167141D01*
X-35212Y166326D01*
X-39283Y165412D01*
X-43330Y164398D01*
X-47352Y163285D01*
X-51345Y162074D01*
X-55307Y160765D01*
X-59236Y159360D01*
X-63129Y157858D01*
X-66984Y156261D01*
X-70798Y154570D01*
X-74570Y152786D01*
X-78297Y150910D01*
X-81977Y148943D01*
X-85608Y146886D01*
X-89187Y144741D01*
X-92712Y142509D01*
X-96182Y140191D01*
X-99593Y137788D01*
X-102945Y135302D01*
X-106234Y132735D01*
X-109460Y130088D01*
X-112619Y127363D01*
X-115711Y124561D01*
X-118733Y121683D01*
X-121683Y118733D01*
X-124561Y115711D01*
X-127363Y112619D01*
X-130088Y109460D01*
X-132735Y106234D01*
X-135302Y102945D01*
X-137788Y99593D01*
X-140191Y96182D01*
X-142509Y92712D01*
X-144741Y89187D01*
X-146886Y85608D01*
X-148943Y81977D01*
X-150910Y78297D01*
X-152786Y74570D01*
X-154570Y70798D01*
X-156261Y66984D01*
X-157858Y63129D01*
X-159360Y59236D01*
X-160765Y55307D01*
X-162074Y51345D01*
X-163285Y47352D01*
X-164398Y43330D01*
X-165412Y39283D01*
X-166326Y35212D01*
X-167141Y31119D01*
X-167854Y27008D01*
X-168466Y22880D01*
X-168977Y18739D01*
X-169386Y14587D01*
X-169693Y10425D01*
X-169898Y6258D01*
X-170000Y2086D01*
X-170000Y-2086D01*
X-169898Y-6258D01*
X-169693Y-10425D01*
X-169386Y-14587D01*
X-168977Y-18739D01*
X-168466Y-22880D01*
X-167854Y-27008D01*
X-167141Y-31119D01*
X-166326Y-35212D01*
X-165412Y-39283D01*
X-164398Y-43330D01*
X-163285Y-47352D01*
X-162074Y-51345D01*
X-160765Y-55307D01*
X-159360Y-59236D01*
X-157858Y-63129D01*
X-156261Y-66984D01*
X-154570Y-70798D01*
X-152786Y-74570D01*
X-150910Y-78297D01*
X-148943Y-81977D01*
X-146886Y-85608D01*
X-144741Y-89187D01*
X-142509Y-92712D01*
X-140191Y-96182D01*
X-137788Y-99593D01*
X-135302Y-102945D01*
X-132735Y-106234D01*
X-130088Y-109460D01*
X-127363Y-112619D01*
X-124561Y-115711D01*
X-121683Y-118733D01*
X-118733Y-121683D01*
X-115711Y-124561D01*
X-112619Y-127363D01*
X-109460Y-130088D01*
X-106234Y-132735D01*
X-102945Y-135302D01*
X-99593Y-137788D01*
X-96182Y-140191D01*
X-92712Y-142509D01*
X-89187Y-144741D01*
X-85608Y-146886D01*
X-81977Y-148943D01*
X-78297Y-150910D01*
X-74570Y-152786D01*
X-70798Y-154570D01*
X-66984Y-156261D01*
X-63129Y-157858D01*
X-59236Y-159360D01*
X-55307Y-160765D01*
X-51345Y-162074D01*
X-47352Y-163285D01*
X-43330Y-164398D01*
X-39283Y-165412D01*
X-35212Y-166326D01*
X-31119Y-167141D01*
X-27008Y-167854D01*
X-22880Y-168466D01*
X-18739Y-168977D01*
X-14587Y-169386D01*
X-10425Y-169693D01*
X-6258Y-169898D01*
X-2086Y-170000D01*
X2086Y-170000D01*
X6258Y-169898D01*
X10425Y-169693D01*
X14587Y-169386D01*
X18739Y-168977D01*
X22880Y-168466D01*
X27008Y-167854D01*
X31119Y-167141D01*
X35212Y-166326D01*
X39283Y-165412D01*
X43330Y-164398D01*
X47352Y-163285D01*
X51345Y-162074D01*
X55307Y-160765D01*
X59236Y-159360D01*
X63129Y-157858D01*
X66984Y-156261D01*
X70798Y-154570D01*
X74570Y-152786D01*
X78297Y-150910D01*
X81977Y-148943D01*
X85608Y-146886D01*
X89187Y-144741D01*
X92712Y-142509D01*
X96182Y-140191D01*
X99593Y-137788D01*
X102945Y-135302D01*
X106234Y-132735D01*
X109460Y-130088D01*
X112619Y-127363D01*
X115711Y-124561D01*
X118733Y-121683D01*
X121683Y-118733D01*
X124561Y-115711D01*
X127363Y-112619D01*
X130088Y-109460D01*
X132735Y-106234D01*
X135302Y-102945D01*
X137788Y-99593D01*
X140191Y-96182D01*
X142509Y-92712D01*
X144741Y-89187D01*
X146886Y-85608D01*
X148943Y-81977D01*
X150910Y-78297D01*
X152786Y-74570D01*
X154570Y-70798D01*
X156261Y-66984D01*
X157858Y-63129D01*
X159360Y-59236D01*
X160765Y-55307D01*
X162074Y-51345D01*
X163285Y-47352D01*
X164398Y-43330D01*
X165412Y-39283D01*
X166326Y-35212D01*
X167141Y-31119D01*
X167854Y-27008D01*
X168466Y-22880D01*
X168977Y-18739D01*
X169386Y-14587D01*
X169693Y-10425D01*
X169898Y-6258D01*
X170000Y-2086D01*
X-345000Y209719D02*
X-345063Y209161D01*
X-345188Y208614D01*
X-345373Y208084D01*
X-345617Y207578D01*
X-345916Y207102D01*
X-346266Y206663D01*
X-346663Y206266D01*
X-347102Y205916D01*
X-347578Y205617D01*
X-348084Y205373D01*
X-348614Y205188D01*
X-349161Y205063D01*
X-349719Y205000D01*
X-350281Y205000D01*
X-350839Y205063D01*
X-351386Y205188D01*
X-351916Y205373D01*
X-352422Y205617D01*
X-352898Y205916D01*
X-353337Y206266D01*
X-353734Y206663D01*
X-354084Y207102D01*
X-354383Y207578D01*
X-354627Y208084D01*
X-354812Y208614D01*
X-354937Y209161D01*
X-355000Y209719D01*
X-355000Y210281D01*
X-354937Y210839D01*
X-354812Y211386D01*
X-354627Y211916D01*
X-354383Y212422D01*
X-354084Y212898D01*
X-353734Y213337D01*
X-353337Y213734D01*
X-352898Y214084D01*
X-352422Y214383D01*
X-351916Y214627D01*
X-351386Y214812D01*
X-350839Y214937D01*
X-350281Y215000D01*
X-349719Y215000D01*
X-349161Y214937D01*
X-348614Y214812D01*
X-348084Y214627D01*
X-347578Y214383D01*
X-347102Y214084D01*
X-346663Y213734D01*
X-346266Y213337D01*
X-345916Y212898D01*
X-345617Y212422D01*
X-345373Y211916D01*
X-345188Y211386D01*
X-345063Y210839D01*
X-345000Y210281D01*
X-345000Y209719D01*
X-345000Y229719D02*
X-345063Y229161D01*
X-345188Y228614D01*
X-345373Y228084D01*
X-345617Y227578D01*
X-345916Y227102D01*
X-346266Y226663D01*
X-346663Y226266D01*
X-347102Y225916D01*
X-347578Y225617D01*
X-348084Y225373D01*
X-348614Y225188D01*
X-349161Y225063D01*
X-349719Y225000D01*
X-350281Y225000D01*
X-350839Y225063D01*
X-351386Y225188D01*
X-351916Y225373D01*
X-352422Y225617D01*
X-352898Y225916D01*
X-353337Y226266D01*
X-353734Y226663D01*
X-354084Y227102D01*
X-354383Y227578D01*
X-354627Y228084D01*
X-354812Y228614D01*
X-354937Y229161D01*
X-355000Y229719D01*
X-355000Y230281D01*
X-354937Y230839D01*
X-354812Y231386D01*
X-354627Y231916D01*
X-354383Y232422D01*
X-354084Y232898D01*
X-353734Y233337D01*
X-353337Y233734D01*
X-352898Y234084D01*
X-352422Y234383D01*
X-351916Y234627D01*
X-351386Y234812D01*
X-350839Y234937D01*
X-350281Y235000D01*
X-349719Y235000D01*
X-349161Y234937D01*
X-348614Y234812D01*
X-348084Y234627D01*
X-347578Y234383D01*
X-347102Y234084D01*
X-346663Y233734D01*
X-346266Y233337D01*
X-345916Y232898D01*
X-345617Y232422D01*
X-345373Y231916D01*
X-345188Y231386D01*
X-345063Y230839D01*
X-345000Y230281D01*
X-345000Y229719D01*
X-655000Y-20281D02*
X-655063Y-20839D01*
X-655188Y-21386D01*
X-655373Y-21916D01*
X-655617Y-22422D01*
X-655916Y-22898D01*
X-656266Y-23337D01*
X-656663Y-23734D01*
X-657102Y-24084D01*
X-657578Y-24383D01*
X-658084Y-24627D01*
X-658614Y-24812D01*
X-659161Y-24937D01*
X-659719Y-25000D01*
X-660281Y-25000D01*
X-660839Y-24937D01*
X-661386Y-24812D01*
X-661916Y-24627D01*
X-662422Y-24383D01*
X-662898Y-24084D01*
X-663337Y-23734D01*
X-663734Y-23337D01*
X-664084Y-22898D01*
X-664383Y-22422D01*
X-664627Y-21916D01*
X-664812Y-21386D01*
X-664937Y-20839D01*
X-665000Y-20281D01*
X-665000Y-19719D01*
X-664937Y-19161D01*
X-664812Y-18614D01*
X-664627Y-18084D01*
X-664383Y-17578D01*
X-664084Y-17102D01*
X-663734Y-16663D01*
X-663337Y-16266D01*
X-662898Y-15916D01*
X-662422Y-15617D01*
X-661916Y-15373D01*
X-661386Y-15188D01*
X-660839Y-15063D01*
X-660281Y-15000D01*
X-659719Y-15000D01*
X-659161Y-15063D01*
X-658614Y-15188D01*
X-658084Y-15373D01*
X-657578Y-15617D01*
X-657102Y-15916D01*
X-656663Y-16266D01*
X-656266Y-16663D01*
X-655916Y-17102D01*
X-655617Y-17578D01*
X-655373Y-18084D01*
X-655188Y-18614D01*
X-655063Y-19161D01*
X-655000Y-19719D01*
X-655000Y-20281D01*
X-635000Y-20281D02*
X-635063Y-20839D01*
X-635188Y-21386D01*
X-635373Y-21916D01*
X-635617Y-22422D01*
X-635916Y-22898D01*
X-636266Y-23337D01*
X-636663Y-23734D01*
X-637102Y-24084D01*
X-637578Y-24383D01*
X-638084Y-24627D01*
X-638614Y-24812D01*
X-639161Y-24937D01*
X-639719Y-25000D01*
X-640281Y-25000D01*
X-640839Y-24937D01*
X-641386Y-24812D01*
X-641916Y-24627D01*
X-642422Y-24383D01*
X-642898Y-24084D01*
X-643337Y-23734D01*
X-643734Y-23337D01*
X-644084Y-22898D01*
X-644383Y-22422D01*
X-644627Y-21916D01*
X-644812Y-21386D01*
X-644937Y-20839D01*
X-645000Y-20281D01*
X-645000Y-19719D01*
X-644937Y-19161D01*
X-644812Y-18614D01*
X-644627Y-18084D01*
X-644383Y-17578D01*
X-644084Y-17102D01*
X-643734Y-16663D01*
X-643337Y-16266D01*
X-642898Y-15916D01*
X-642422Y-15617D01*
X-641916Y-15373D01*
X-641386Y-15188D01*
X-640839Y-15063D01*
X-640281Y-15000D01*
X-639719Y-15000D01*
X-639161Y-15063D01*
X-638614Y-15188D01*
X-638084Y-15373D01*
X-637578Y-15617D01*
X-637102Y-15916D01*
X-636663Y-16266D01*
X-636266Y-16663D01*
X-635916Y-17102D01*
X-635617Y-17578D01*
X-635373Y-18084D01*
X-635188Y-18614D01*
X-635063Y-19161D01*
X-635000Y-19719D01*
X-635000Y-20281D01*
X355000Y229719D02*
X354937Y229161D01*
X354812Y228614D01*
X354627Y228084D01*
X354383Y227578D01*
X354084Y227102D01*
X353734Y226663D01*
X353337Y226266D01*
X352898Y225916D01*
X352422Y225617D01*
X351916Y225373D01*
X351386Y225188D01*
X350839Y225063D01*
X350281Y225000D01*
X349719Y225000D01*
X349161Y225063D01*
X348614Y225188D01*
X348084Y225373D01*
X347578Y225617D01*
X347102Y225916D01*
X346663Y226266D01*
X346266Y226663D01*
X345916Y227102D01*
X345617Y227578D01*
X345373Y228084D01*
X345188Y228614D01*
X345063Y229161D01*
X345000Y229719D01*
X345000Y230281D01*
X345063Y230839D01*
X345188Y231386D01*
X345373Y231916D01*
X345617Y232422D01*
X345916Y232898D01*
X346266Y233337D01*
X346663Y233734D01*
X347102Y234084D01*
X347578Y234383D01*
X348084Y234627D01*
X348614Y234812D01*
X349161Y234937D01*
X349719Y235000D01*
X350281Y235000D01*
X350839Y234937D01*
X351386Y234812D01*
X351916Y234627D01*
X352422Y234383D01*
X352898Y234084D01*
X353337Y233734D01*
X353734Y233337D01*
X354084Y232898D01*
X354383Y232422D01*
X354627Y231916D01*
X354812Y231386D01*
X354937Y230839D01*
X355000Y230281D01*
X355000Y229719D01*
X355000Y209719D02*
X354937Y209161D01*
X354812Y208614D01*
X354627Y208084D01*
X354383Y207578D01*
X354084Y207102D01*
X353734Y206663D01*
X353337Y206266D01*
X352898Y205916D01*
X352422Y205617D01*
X351916Y205373D01*
X351386Y205188D01*
X350839Y205063D01*
X350281Y205000D01*
X349719Y205000D01*
X349161Y205063D01*
X348614Y205188D01*
X348084Y205373D01*
X347578Y205617D01*
X347102Y205916D01*
X346663Y206266D01*
X346266Y206663D01*
X345916Y207102D01*
X345617Y207578D01*
X345373Y208084D01*
X345188Y208614D01*
X345063Y209161D01*
X345000Y209719D01*
X345000Y210281D01*
X345063Y210839D01*
X345188Y211386D01*
X345373Y211916D01*
X345617Y212422D01*
X345916Y212898D01*
X346266Y213337D01*
X346663Y213734D01*
X347102Y214084D01*
X347578Y214383D01*
X348084Y214627D01*
X348614Y214812D01*
X349161Y214937D01*
X349719Y215000D01*
X350281Y215000D01*
X350839Y214937D01*
X351386Y214812D01*
X351916Y214627D01*
X352422Y214383D01*
X352898Y214084D01*
X353337Y213734D01*
X353734Y213337D01*
X354084Y212898D01*
X354383Y212422D01*
X354627Y211916D01*
X354812Y211386D01*
X354937Y210839D01*
X355000Y210281D01*
X355000Y209719D01*
X645000Y-20281D02*
X644937Y-20839D01*
X644812Y-21386D01*
X644627Y-21916D01*
X644383Y-22422D01*
X644084Y-22898D01*
X643734Y-23337D01*
X643337Y-23734D01*
X642898Y-24084D01*
X642422Y-24383D01*
X641916Y-24627D01*
X641386Y-24812D01*
X640839Y-24937D01*
X640281Y-25000D01*
X639719Y-25000D01*
X639161Y-24937D01*
X638614Y-24812D01*
X638084Y-24627D01*
X637578Y-24383D01*
X637102Y-24084D01*
X636663Y-23734D01*
X636266Y-23337D01*
X635916Y-22898D01*
X635617Y-22422D01*
X635373Y-21916D01*
X635188Y-21386D01*
X635063Y-20839D01*
X635000Y-20281D01*
X635000Y-19719D01*
X635063Y-19161D01*
X635188Y-18614D01*
X635373Y-18084D01*
X635617Y-17578D01*
X635916Y-17102D01*
X636266Y-16663D01*
X636663Y-16266D01*
X637102Y-15916D01*
X637578Y-15617D01*
X638084Y-15373D01*
X638614Y-15188D01*
X639161Y-15063D01*
X639719Y-15000D01*
X640281Y-15000D01*
X640839Y-15063D01*
X641386Y-15188D01*
X641916Y-15373D01*
X642422Y-15617D01*
X642898Y-15916D01*
X643337Y-16266D01*
X643734Y-16663D01*
X644084Y-17102D01*
X644383Y-17578D01*
X644627Y-18084D01*
X644812Y-18614D01*
X644937Y-19161D01*
X645000Y-19719D01*
X645000Y-20281D01*
X665000Y-20281D02*
X664937Y-20839D01*
X664812Y-21386D01*
X664627Y-21916D01*
X664383Y-22422D01*
X664084Y-22898D01*
X663734Y-23337D01*
X663337Y-23734D01*
X662898Y-24084D01*
X662422Y-24383D01*
X661916Y-24627D01*
X661386Y-24812D01*
X660839Y-24937D01*
X660281Y-25000D01*
X659719Y-25000D01*
X659161Y-24937D01*
X658614Y-24812D01*
X658084Y-24627D01*
X657578Y-24383D01*
X657102Y-24084D01*
X656663Y-23734D01*
X656266Y-23337D01*
X655916Y-22898D01*
X655617Y-22422D01*
X655373Y-21916D01*
X655188Y-21386D01*
X655063Y-20839D01*
X655000Y-20281D01*
X655000Y-19719D01*
X655063Y-19161D01*
X655188Y-18614D01*
X655373Y-18084D01*
X655617Y-17578D01*
X655916Y-17102D01*
X656266Y-16663D01*
X656663Y-16266D01*
X657102Y-15916D01*
X657578Y-15617D01*
X658084Y-15373D01*
X658614Y-15188D01*
X659161Y-15063D01*
X659719Y-15000D01*
X660281Y-15000D01*
X660839Y-15063D01*
X661386Y-15188D01*
X661916Y-15373D01*
X662422Y-15617D01*
X662898Y-15916D01*
X663337Y-16266D01*
X663734Y-16663D01*
X664084Y-17102D01*
X664383Y-17578D01*
X664627Y-18084D01*
X664812Y-18614D01*
X664937Y-19161D01*
X665000Y-19719D01*
X665000Y-20281D01*
X-677729Y-258000D02*
X-676788Y-258074D01*
X-675857Y-258222D01*
X-674940Y-258442D01*
X-674043Y-258733D01*
X-673172Y-259094D01*
X-672332Y-259522D01*
X-671528Y-260015D01*
X-670765Y-260569D01*
X-670048Y-261181D01*
X-669381Y-261848D01*
X-668769Y-262565D01*
X-668215Y-263328D01*
X-667722Y-264132D01*
X-667294Y-264972D01*
X-666933Y-265843D01*
X-666642Y-266740D01*
X-666422Y-267657D01*
X-666274Y-268588D01*
X-666200Y-269529D01*
X-666200Y-270471D01*
X-666274Y-271412D01*
X-666422Y-272343D01*
X-666642Y-273260D01*
X-666933Y-274157D01*
X-667294Y-275028D01*
X-667722Y-275868D01*
X-668215Y-276672D01*
X-668769Y-277435D01*
X-669381Y-278152D01*
X-670048Y-278819D01*
X-670765Y-279431D01*
X-671528Y-279985D01*
X-672332Y-280478D01*
X-673172Y-280906D01*
X-674043Y-281267D01*
X-674940Y-281558D01*
X-675857Y-281779D01*
X-676788Y-281926D01*
X-677729Y-282000D01*
X-678671Y-282000D01*
X-679612Y-281926D01*
X-680543Y-281779D01*
X-681460Y-281558D01*
X-682357Y-281267D01*
X-683228Y-280906D01*
X-684068Y-280478D01*
X-684872Y-279985D01*
X-685635Y-279431D01*
X-686352Y-278819D01*
X-687019Y-278152D01*
X-687631Y-277435D01*
X-688185Y-276672D01*
X-688678Y-275868D01*
X-689106Y-275028D01*
X-689467Y-274157D01*
X-689758Y-273260D01*
X-689979Y-272343D01*
X-690126Y-271412D01*
X-690200Y-270471D01*
X-690200Y-269529D01*
X-690126Y-268588D01*
X-689979Y-267657D01*
X-689758Y-266740D01*
X-689467Y-265843D01*
X-689106Y-264972D01*
X-688678Y-264132D01*
X-688185Y-263328D01*
X-687631Y-262565D01*
X-687019Y-261848D01*
X-686352Y-261181D01*
X-685635Y-260569D01*
X-684872Y-260015D01*
X-684068Y-259522D01*
X-683228Y-259094D01*
X-682357Y-258733D01*
X-681460Y-258442D01*
X-680543Y-258222D01*
X-679612Y-258074D01*
X-678671Y-258000D01*
X-677729Y-258000D01*
X-677729Y-78000D02*
X-676788Y-78074D01*
X-675857Y-78222D01*
X-674940Y-78442D01*
X-674043Y-78733D01*
X-673172Y-79094D01*
X-672332Y-79522D01*
X-671528Y-80015D01*
X-670765Y-80569D01*
X-670048Y-81181D01*
X-669381Y-81848D01*
X-668769Y-82565D01*
X-668215Y-83328D01*
X-667722Y-84132D01*
X-667294Y-84972D01*
X-666933Y-85843D01*
X-666642Y-86740D01*
X-666422Y-87657D01*
X-666274Y-88588D01*
X-666200Y-89529D01*
X-666200Y-90471D01*
X-666274Y-91412D01*
X-666422Y-92343D01*
X-666642Y-93260D01*
X-666933Y-94157D01*
X-667294Y-95028D01*
X-667722Y-95868D01*
X-668215Y-96672D01*
X-668769Y-97435D01*
X-669381Y-98152D01*
X-670048Y-98819D01*
X-670765Y-99431D01*
X-671528Y-99985D01*
X-672332Y-100478D01*
X-673172Y-100906D01*
X-674043Y-101267D01*
X-674940Y-101558D01*
X-675857Y-101779D01*
X-676788Y-101926D01*
X-677729Y-102000D01*
X-678671Y-102000D01*
X-679612Y-101926D01*
X-680543Y-101779D01*
X-681460Y-101558D01*
X-682357Y-101267D01*
X-683228Y-100906D01*
X-684068Y-100478D01*
X-684872Y-99985D01*
X-685635Y-99431D01*
X-686352Y-98819D01*
X-687019Y-98152D01*
X-687631Y-97435D01*
X-688185Y-96672D01*
X-688678Y-95868D01*
X-689106Y-95028D01*
X-689467Y-94157D01*
X-689758Y-93260D01*
X-689979Y-92343D01*
X-690126Y-91412D01*
X-690200Y-90471D01*
X-690200Y-89529D01*
X-690126Y-88588D01*
X-689979Y-87657D01*
X-689758Y-86740D01*
X-689467Y-85843D01*
X-689106Y-84972D01*
X-688678Y-84132D01*
X-688185Y-83328D01*
X-687631Y-82565D01*
X-687019Y-81848D01*
X-686352Y-81181D01*
X-685635Y-80569D01*
X-684872Y-80015D01*
X-684068Y-79522D01*
X-683228Y-79094D01*
X-682357Y-78733D01*
X-681460Y-78442D01*
X-680543Y-78222D01*
X-679612Y-78074D01*
X-678671Y-78000D01*
X-677729Y-78000D01*
X677729Y-102000D02*
X676788Y-101926D01*
X675857Y-101779D01*
X674940Y-101558D01*
X674043Y-101267D01*
X673172Y-100906D01*
X672332Y-100478D01*
X671528Y-99985D01*
X670765Y-99431D01*
X670048Y-98819D01*
X669381Y-98152D01*
X668769Y-97435D01*
X668215Y-96672D01*
X667722Y-95868D01*
X667294Y-95028D01*
X666933Y-94157D01*
X666642Y-93260D01*
X666422Y-92343D01*
X666274Y-91412D01*
X666200Y-90471D01*
X666200Y-89529D01*
X666274Y-88588D01*
X666422Y-87657D01*
X666642Y-86740D01*
X666933Y-85843D01*
X667294Y-84972D01*
X667722Y-84132D01*
X668215Y-83328D01*
X668769Y-82565D01*
X669381Y-81848D01*
X670048Y-81181D01*
X670765Y-80569D01*
X671528Y-80015D01*
X672332Y-79522D01*
X673172Y-79094D01*
X674043Y-78733D01*
X674940Y-78442D01*
X675857Y-78222D01*
X676788Y-78074D01*
X677729Y-78000D01*
X678671Y-78000D01*
X679612Y-78074D01*
X680543Y-78222D01*
X681460Y-78442D01*
X682357Y-78733D01*
X683228Y-79094D01*
X684068Y-79522D01*
X684872Y-80015D01*
X685635Y-80569D01*
X686352Y-81181D01*
X687019Y-81848D01*
X687631Y-82565D01*
X688185Y-83328D01*
X688678Y-84132D01*
X689106Y-84972D01*
X689467Y-85843D01*
X689758Y-86740D01*
X689979Y-87657D01*
X690126Y-88588D01*
X690200Y-89529D01*
X690200Y-90471D01*
X690126Y-91412D01*
X689979Y-92343D01*
X689758Y-93260D01*
X689467Y-94157D01*
X689106Y-95028D01*
X688678Y-95868D01*
X688185Y-96672D01*
X687631Y-97435D01*
X687019Y-98152D01*
X686352Y-98819D01*
X685635Y-99431D01*
X684872Y-99985D01*
X684068Y-100478D01*
X683228Y-100906D01*
X682357Y-101267D01*
X681460Y-101558D01*
X680543Y-101779D01*
X679612Y-101926D01*
X678671Y-102000D01*
X677729Y-102000D01*
X677729Y-282000D02*
X676788Y-281926D01*
X675857Y-281779D01*
X674940Y-281558D01*
X674043Y-281267D01*
X673172Y-280906D01*
X672332Y-280478D01*
X671528Y-279985D01*
X670765Y-279431D01*
X670048Y-278819D01*
X669381Y-278152D01*
X668769Y-277435D01*
X668215Y-276672D01*
X667722Y-275868D01*
X667294Y-275028D01*
X666933Y-274157D01*
X666642Y-273260D01*
X666422Y-272343D01*
X666274Y-271412D01*
X666200Y-270471D01*
X666200Y-269529D01*
X666274Y-268588D01*
X666422Y-267657D01*
X666642Y-266740D01*
X666933Y-265843D01*
X667294Y-264972D01*
X667722Y-264132D01*
X668215Y-263328D01*
X668769Y-262565D01*
X669381Y-261848D01*
X670048Y-261181D01*
X670765Y-260569D01*
X671528Y-260015D01*
X672332Y-259522D01*
X673172Y-259094D01*
X674043Y-258733D01*
X674940Y-258442D01*
X675857Y-258222D01*
X676788Y-258074D01*
X677729Y-258000D01*
X678671Y-258000D01*
X679612Y-258074D01*
X680543Y-258222D01*
X681460Y-258442D01*
X682357Y-258733D01*
X683228Y-259094D01*
X684068Y-259522D01*
X684872Y-260015D01*
X685635Y-260569D01*
X686352Y-261181D01*
X687019Y-261848D01*
X687631Y-262565D01*
X688185Y-263328D01*
X688678Y-264132D01*
X689106Y-264972D01*
X689467Y-265843D01*
X689758Y-266740D01*
X689979Y-267657D01*
X690126Y-268588D01*
X690200Y-269529D01*
X690200Y-270471D01*
X690126Y-271412D01*
X689979Y-272343D01*
X689758Y-273260D01*
X689467Y-274157D01*
X689106Y-275028D01*
X688678Y-275868D01*
X688185Y-276672D01*
X687631Y-277435D01*
X687019Y-278152D01*
X686352Y-278819D01*
X685635Y-279431D01*
X684872Y-279985D01*
X684068Y-280478D01*
X683228Y-280906D01*
X682357Y-281267D01*
X681460Y-281558D01*
X680543Y-281779D01*
X679612Y-281926D01*
X678671Y-282000D01*
X677729Y-282000D01*
M02*
