G04 EAGLE Gerber RS-274X export*
G75*
%MOMM*%
%FSLAX34Y34*%
%LPD*%
%INSolderpaste Top*%
%IPPOS*%
%AMOC8*
5,1,8,0,0,1.08239X$1,22.5*%
G01*
%ADD10R,1.270000X0.558800*%
%ADD11R,0.558800X1.270000*%
%ADD12C,0.450000*%
%ADD13C,0.150000*%
%ADD14R,0.950000X0.950000*%
%ADD15R,1.300000X1.600000*%
%ADD16R,1.524000X0.762000*%
%ADD17R,0.400000X1.250000*%
%ADD18R,1.600000X1.300000*%
%ADD19R,1.600000X1.400000*%
%ADD20R,5.400000X6.200000*%
%ADD21R,1.000000X1.600000*%
%ADD22R,1.800000X2.200000*%
%ADD23R,3.000000X2.500000*%
%ADD24R,1.400000X1.600000*%
%ADD25R,1.200000X1.200000*%
%ADD26R,1.300000X1.500000*%
%ADD27R,3.500000X1.600000*%
%ADD28R,0.250000X1.250000*%
%ADD29R,1.650000X2.050000*%
%ADD30R,0.965200X1.930400*%
%ADD31R,1.000000X1.100000*%
%ADD32R,1.201059X1.099838*%
%ADD33R,1.202450X1.101419*%
%ADD34R,1.199731X1.100281*%
%ADD35R,1.248431X1.099550*%
%ADD36R,1.100000X1.000000*%
%ADD37R,1.099838X1.201059*%
%ADD38R,1.101419X1.202450*%
%ADD39R,1.100281X1.199731*%
%ADD40R,1.099550X1.248431*%


D10*
G36*
X-353687Y-18040D02*
X-362666Y-27019D01*
X-366617Y-23068D01*
X-357638Y-14089D01*
X-353687Y-18040D01*
G37*
G36*
X-348030Y-23697D02*
X-357009Y-32676D01*
X-360960Y-28725D01*
X-351981Y-19746D01*
X-348030Y-23697D01*
G37*
G36*
X-342374Y-29354D02*
X-351353Y-38333D01*
X-355304Y-34382D01*
X-346325Y-25403D01*
X-342374Y-29354D01*
G37*
G36*
X-336717Y-35011D02*
X-345696Y-43990D01*
X-349647Y-40039D01*
X-340668Y-31060D01*
X-336717Y-35011D01*
G37*
G36*
X-331060Y-40668D02*
X-340039Y-49647D01*
X-343990Y-45696D01*
X-335011Y-36717D01*
X-331060Y-40668D01*
G37*
G36*
X-325403Y-46325D02*
X-334382Y-55304D01*
X-338333Y-51353D01*
X-329354Y-42374D01*
X-325403Y-46325D01*
G37*
G36*
X-319746Y-51981D02*
X-328725Y-60960D01*
X-332676Y-57009D01*
X-323697Y-48030D01*
X-319746Y-51981D01*
G37*
G36*
X-314089Y-57638D02*
X-323068Y-66617D01*
X-327019Y-62666D01*
X-318040Y-53687D01*
X-314089Y-57638D01*
G37*
D11*
G36*
X-292981Y-62666D02*
X-296932Y-66617D01*
X-305911Y-57638D01*
X-301960Y-53687D01*
X-292981Y-62666D01*
G37*
G36*
X-287324Y-57009D02*
X-291275Y-60960D01*
X-300254Y-51981D01*
X-296303Y-48030D01*
X-287324Y-57009D01*
G37*
G36*
X-281667Y-51353D02*
X-285618Y-55304D01*
X-294597Y-46325D01*
X-290646Y-42374D01*
X-281667Y-51353D01*
G37*
G36*
X-276010Y-45696D02*
X-279961Y-49647D01*
X-288940Y-40668D01*
X-284989Y-36717D01*
X-276010Y-45696D01*
G37*
G36*
X-270353Y-40039D02*
X-274304Y-43990D01*
X-283283Y-35011D01*
X-279332Y-31060D01*
X-270353Y-40039D01*
G37*
G36*
X-264696Y-34382D02*
X-268647Y-38333D01*
X-277626Y-29354D01*
X-273675Y-25403D01*
X-264696Y-34382D01*
G37*
G36*
X-259040Y-28725D02*
X-262991Y-32676D01*
X-271970Y-23697D01*
X-268019Y-19746D01*
X-259040Y-28725D01*
G37*
G36*
X-253383Y-23068D02*
X-257334Y-27019D01*
X-266313Y-18040D01*
X-262362Y-14089D01*
X-253383Y-23068D01*
G37*
D10*
G36*
X-253383Y3068D02*
X-262362Y-5911D01*
X-266313Y-1960D01*
X-257334Y7019D01*
X-253383Y3068D01*
G37*
G36*
X-259040Y8725D02*
X-268019Y-254D01*
X-271970Y3697D01*
X-262991Y12676D01*
X-259040Y8725D01*
G37*
G36*
X-264696Y14382D02*
X-273675Y5403D01*
X-277626Y9354D01*
X-268647Y18333D01*
X-264696Y14382D01*
G37*
G36*
X-270353Y20039D02*
X-279332Y11060D01*
X-283283Y15011D01*
X-274304Y23990D01*
X-270353Y20039D01*
G37*
G36*
X-276010Y25696D02*
X-284989Y16717D01*
X-288940Y20668D01*
X-279961Y29647D01*
X-276010Y25696D01*
G37*
G36*
X-281667Y31353D02*
X-290646Y22374D01*
X-294597Y26325D01*
X-285618Y35304D01*
X-281667Y31353D01*
G37*
G36*
X-287324Y37009D02*
X-296303Y28030D01*
X-300254Y31981D01*
X-291275Y40960D01*
X-287324Y37009D01*
G37*
G36*
X-292981Y42666D02*
X-301960Y33687D01*
X-305911Y37638D01*
X-296932Y46617D01*
X-292981Y42666D01*
G37*
D11*
G36*
X-314089Y37638D02*
X-318040Y33687D01*
X-327019Y42666D01*
X-323068Y46617D01*
X-314089Y37638D01*
G37*
G36*
X-319746Y31981D02*
X-323697Y28030D01*
X-332676Y37009D01*
X-328725Y40960D01*
X-319746Y31981D01*
G37*
G36*
X-325403Y26325D02*
X-329354Y22374D01*
X-338333Y31353D01*
X-334382Y35304D01*
X-325403Y26325D01*
G37*
G36*
X-331060Y20668D02*
X-335011Y16717D01*
X-343990Y25696D01*
X-340039Y29647D01*
X-331060Y20668D01*
G37*
G36*
X-336717Y15011D02*
X-340668Y11060D01*
X-349647Y20039D01*
X-345696Y23990D01*
X-336717Y15011D01*
G37*
G36*
X-342374Y9354D02*
X-346325Y5403D01*
X-355304Y14382D01*
X-351353Y18333D01*
X-342374Y9354D01*
G37*
G36*
X-348030Y3697D02*
X-351981Y-254D01*
X-360960Y8725D01*
X-357009Y12676D01*
X-348030Y3697D01*
G37*
G36*
X-353687Y-1960D02*
X-357638Y-5911D01*
X-366617Y3068D01*
X-362666Y7019D01*
X-353687Y-1960D01*
G37*
D12*
X-322000Y-92725D02*
X-322000Y-107275D01*
X-310000Y-107275D02*
X-310000Y-92725D01*
X-298000Y-92725D02*
X-298000Y-107275D01*
D13*
X-340405Y-16717D02*
X-336517Y-12829D01*
X-340405Y-16717D02*
X-341465Y-15657D01*
X-337577Y-11769D01*
X-336517Y-12829D01*
X-338980Y-15292D02*
X-341100Y-15292D01*
X-339675Y-13867D02*
X-337555Y-13867D01*
X-336904Y-12442D02*
X-338250Y-12442D01*
X-332982Y-16364D02*
X-336870Y-20252D01*
X-337930Y-19192D01*
X-334042Y-15304D01*
X-332982Y-16364D01*
X-335445Y-18827D02*
X-337565Y-18827D01*
X-336140Y-17402D02*
X-334020Y-17402D01*
X-333369Y-15977D02*
X-334715Y-15977D01*
X-329446Y-19900D02*
X-333334Y-23788D01*
X-334394Y-22728D01*
X-330506Y-18840D01*
X-329446Y-19900D01*
X-331909Y-22363D02*
X-334029Y-22363D01*
X-332604Y-20938D02*
X-330484Y-20938D01*
X-329833Y-19513D02*
X-331179Y-19513D01*
X-325911Y-23435D02*
X-329799Y-27323D01*
X-330859Y-26263D01*
X-326971Y-22375D01*
X-325911Y-23435D01*
X-328374Y-25898D02*
X-330494Y-25898D01*
X-329069Y-24473D02*
X-326949Y-24473D01*
X-326298Y-23048D02*
X-327644Y-23048D01*
X-322375Y-26971D02*
X-326263Y-30859D01*
X-327323Y-29799D01*
X-323435Y-25911D01*
X-322375Y-26971D01*
X-324838Y-29434D02*
X-326958Y-29434D01*
X-325533Y-28009D02*
X-323413Y-28009D01*
X-322762Y-26584D02*
X-324108Y-26584D01*
X-318840Y-30506D02*
X-322728Y-34394D01*
X-323788Y-33334D01*
X-319900Y-29446D01*
X-318840Y-30506D01*
X-321303Y-32969D02*
X-323423Y-32969D01*
X-321998Y-31544D02*
X-319878Y-31544D01*
X-319227Y-30119D02*
X-320573Y-30119D01*
X-315304Y-34042D02*
X-319192Y-37930D01*
X-320252Y-36870D01*
X-316364Y-32982D01*
X-315304Y-34042D01*
X-317767Y-36505D02*
X-319887Y-36505D01*
X-318462Y-35080D02*
X-316342Y-35080D01*
X-315691Y-33655D02*
X-317037Y-33655D01*
X-311769Y-37577D02*
X-315657Y-41465D01*
X-316717Y-40405D01*
X-312829Y-36517D01*
X-311769Y-37577D01*
X-314232Y-40040D02*
X-316352Y-40040D01*
X-314927Y-38615D02*
X-312807Y-38615D01*
X-312156Y-37190D02*
X-313502Y-37190D01*
X-304343Y-41465D02*
X-303283Y-40405D01*
X-304343Y-41465D02*
X-308231Y-37577D01*
X-307171Y-36517D01*
X-303283Y-40405D01*
X-303648Y-40040D02*
X-305768Y-40040D01*
X-305073Y-38615D02*
X-307193Y-38615D01*
X-307844Y-37190D02*
X-306498Y-37190D01*
X-300808Y-37930D02*
X-299748Y-36870D01*
X-300808Y-37930D02*
X-304696Y-34042D01*
X-303636Y-32982D01*
X-299748Y-36870D01*
X-300113Y-36505D02*
X-302233Y-36505D01*
X-301538Y-35080D02*
X-303658Y-35080D01*
X-304309Y-33655D02*
X-302963Y-33655D01*
X-297272Y-34394D02*
X-296212Y-33334D01*
X-297272Y-34394D02*
X-301160Y-30506D01*
X-300100Y-29446D01*
X-296212Y-33334D01*
X-296577Y-32969D02*
X-298697Y-32969D01*
X-298002Y-31544D02*
X-300122Y-31544D01*
X-300773Y-30119D02*
X-299427Y-30119D01*
X-293737Y-30859D02*
X-292677Y-29799D01*
X-293737Y-30859D02*
X-297625Y-26971D01*
X-296565Y-25911D01*
X-292677Y-29799D01*
X-293042Y-29434D02*
X-295162Y-29434D01*
X-294467Y-28009D02*
X-296587Y-28009D01*
X-297238Y-26584D02*
X-295892Y-26584D01*
X-290201Y-27323D02*
X-289141Y-26263D01*
X-290201Y-27323D02*
X-294089Y-23435D01*
X-293029Y-22375D01*
X-289141Y-26263D01*
X-289506Y-25898D02*
X-291626Y-25898D01*
X-290931Y-24473D02*
X-293051Y-24473D01*
X-293702Y-23048D02*
X-292356Y-23048D01*
X-286666Y-23788D02*
X-285606Y-22728D01*
X-286666Y-23788D02*
X-290554Y-19900D01*
X-289494Y-18840D01*
X-285606Y-22728D01*
X-285971Y-22363D02*
X-288091Y-22363D01*
X-287396Y-20938D02*
X-289516Y-20938D01*
X-290167Y-19513D02*
X-288821Y-19513D01*
X-283130Y-20252D02*
X-282070Y-19192D01*
X-283130Y-20252D02*
X-287018Y-16364D01*
X-285958Y-15304D01*
X-282070Y-19192D01*
X-282435Y-18827D02*
X-284555Y-18827D01*
X-283860Y-17402D02*
X-285980Y-17402D01*
X-286631Y-15977D02*
X-285285Y-15977D01*
X-279595Y-16717D02*
X-278535Y-15657D01*
X-279595Y-16717D02*
X-283483Y-12829D01*
X-282423Y-11769D01*
X-278535Y-15657D01*
X-278900Y-15292D02*
X-281020Y-15292D01*
X-280325Y-13867D02*
X-282445Y-13867D01*
X-283096Y-12442D02*
X-281750Y-12442D01*
X-282423Y-8231D02*
X-278535Y-4343D01*
X-282423Y-8231D02*
X-283483Y-7171D01*
X-279595Y-3283D01*
X-278535Y-4343D01*
X-280998Y-6806D02*
X-283118Y-6806D01*
X-281693Y-5381D02*
X-279573Y-5381D01*
X-278922Y-3956D02*
X-280268Y-3956D01*
X-282070Y-808D02*
X-285958Y-4696D01*
X-287018Y-3636D01*
X-283130Y252D01*
X-282070Y-808D01*
X-284533Y-3271D02*
X-286653Y-3271D01*
X-285228Y-1846D02*
X-283108Y-1846D01*
X-282457Y-421D02*
X-283803Y-421D01*
X-285606Y2728D02*
X-289494Y-1160D01*
X-290554Y-100D01*
X-286666Y3788D01*
X-285606Y2728D01*
X-288069Y265D02*
X-290189Y265D01*
X-288764Y1690D02*
X-286644Y1690D01*
X-285993Y3115D02*
X-287339Y3115D01*
X-289141Y6263D02*
X-293029Y2375D01*
X-294089Y3435D01*
X-290201Y7323D01*
X-289141Y6263D01*
X-291604Y3800D02*
X-293724Y3800D01*
X-292299Y5225D02*
X-290179Y5225D01*
X-289528Y6650D02*
X-290874Y6650D01*
X-292677Y9799D02*
X-296565Y5911D01*
X-297625Y6971D01*
X-293737Y10859D01*
X-292677Y9799D01*
X-295140Y7336D02*
X-297260Y7336D01*
X-295835Y8761D02*
X-293715Y8761D01*
X-293064Y10186D02*
X-294410Y10186D01*
X-296212Y13334D02*
X-300100Y9446D01*
X-301160Y10506D01*
X-297272Y14394D01*
X-296212Y13334D01*
X-298675Y10871D02*
X-300795Y10871D01*
X-299370Y12296D02*
X-297250Y12296D01*
X-296599Y13721D02*
X-297945Y13721D01*
X-299748Y16870D02*
X-303636Y12982D01*
X-304696Y14042D01*
X-300808Y17930D01*
X-299748Y16870D01*
X-302211Y14407D02*
X-304331Y14407D01*
X-302906Y15832D02*
X-300786Y15832D01*
X-300135Y17257D02*
X-301481Y17257D01*
X-303283Y20405D02*
X-307171Y16517D01*
X-308231Y17577D01*
X-304343Y21465D01*
X-303283Y20405D01*
X-305746Y17942D02*
X-307866Y17942D01*
X-306441Y19367D02*
X-304321Y19367D01*
X-303670Y20792D02*
X-305016Y20792D01*
X-311769Y17577D02*
X-312829Y16517D01*
X-316717Y20405D01*
X-315657Y21465D01*
X-311769Y17577D01*
X-312134Y17942D02*
X-314254Y17942D01*
X-313559Y19367D02*
X-315679Y19367D01*
X-316330Y20792D02*
X-314984Y20792D01*
X-315304Y14042D02*
X-316364Y12982D01*
X-320252Y16870D01*
X-319192Y17930D01*
X-315304Y14042D01*
X-315669Y14407D02*
X-317789Y14407D01*
X-317094Y15832D02*
X-319214Y15832D01*
X-319865Y17257D02*
X-318519Y17257D01*
X-318840Y10506D02*
X-319900Y9446D01*
X-323788Y13334D01*
X-322728Y14394D01*
X-318840Y10506D01*
X-319205Y10871D02*
X-321325Y10871D01*
X-320630Y12296D02*
X-322750Y12296D01*
X-323401Y13721D02*
X-322055Y13721D01*
X-322375Y6971D02*
X-323435Y5911D01*
X-327323Y9799D01*
X-326263Y10859D01*
X-322375Y6971D01*
X-322740Y7336D02*
X-324860Y7336D01*
X-324165Y8761D02*
X-326285Y8761D01*
X-326936Y10186D02*
X-325590Y10186D01*
X-325911Y3435D02*
X-326971Y2375D01*
X-330859Y6263D01*
X-329799Y7323D01*
X-325911Y3435D01*
X-326276Y3800D02*
X-328396Y3800D01*
X-327701Y5225D02*
X-329821Y5225D01*
X-330472Y6650D02*
X-329126Y6650D01*
X-329446Y-100D02*
X-330506Y-1160D01*
X-334394Y2728D01*
X-333334Y3788D01*
X-329446Y-100D01*
X-329811Y265D02*
X-331931Y265D01*
X-331236Y1690D02*
X-333356Y1690D01*
X-334007Y3115D02*
X-332661Y3115D01*
X-332982Y-3636D02*
X-334042Y-4696D01*
X-337930Y-808D01*
X-336870Y252D01*
X-332982Y-3636D01*
X-333347Y-3271D02*
X-335467Y-3271D01*
X-334772Y-1846D02*
X-336892Y-1846D01*
X-337543Y-421D02*
X-336197Y-421D01*
X-336517Y-7171D02*
X-337577Y-8231D01*
X-341465Y-4343D01*
X-340405Y-3283D01*
X-336517Y-7171D01*
X-336882Y-6806D02*
X-339002Y-6806D01*
X-338307Y-5381D02*
X-340427Y-5381D01*
X-341078Y-3956D02*
X-339732Y-3956D01*
D14*
G36*
X-313536Y-10000D02*
X-320253Y-16717D01*
X-326970Y-10000D01*
X-320253Y-3283D01*
X-313536Y-10000D01*
G37*
G36*
X-303283Y253D02*
X-310000Y-6464D01*
X-316717Y253D01*
X-310000Y6970D01*
X-303283Y253D01*
G37*
G36*
X-293030Y-10000D02*
X-299747Y-16717D01*
X-306464Y-10000D01*
X-299747Y-3283D01*
X-293030Y-10000D01*
G37*
G36*
X-303283Y-20253D02*
X-310000Y-26970D01*
X-316717Y-20253D01*
X-310000Y-13536D01*
X-303283Y-20253D01*
G37*
D15*
X-210128Y49736D03*
X-230128Y49736D03*
X-219928Y30320D03*
X-239928Y30320D03*
D16*
X-165400Y-320950D03*
X-114600Y-320950D03*
X-165400Y-359050D03*
X-114600Y-359050D03*
D17*
X-275750Y-186250D03*
X-269250Y-186250D03*
X-262750Y-186250D03*
X-256250Y-186250D03*
X-249750Y-186250D03*
X-243250Y-186250D03*
X-236750Y-186250D03*
X-230250Y-186250D03*
X-223750Y-186250D03*
X-217250Y-186250D03*
X-210750Y-186250D03*
X-204250Y-186250D03*
X-217250Y-113750D03*
X-223750Y-113750D03*
X-230250Y-113750D03*
X-236750Y-113750D03*
X-243250Y-113750D03*
X-249750Y-113750D03*
X-256250Y-113750D03*
X-262750Y-113750D03*
X-269250Y-113750D03*
X-275750Y-113750D03*
X-210750Y-113750D03*
X-204250Y-113750D03*
D18*
X-300000Y-160000D03*
X-300000Y-140000D03*
D19*
X-180000Y-164000D03*
X-180000Y-136000D03*
D20*
X360000Y-35000D03*
D21*
X337200Y-108000D03*
X382800Y-108000D03*
D22*
X285500Y-100000D03*
X234500Y-100000D03*
D23*
X415000Y-50000D03*
X485000Y-50000D03*
D24*
X372820Y14290D03*
X344820Y14290D03*
D25*
X-209787Y-10127D03*
X-230787Y-10127D03*
X470500Y-330000D03*
X449500Y-330000D03*
D26*
X450500Y-300000D03*
X469500Y-300000D03*
D25*
X-449500Y-330000D03*
X-470500Y-330000D03*
D26*
X-469500Y-300000D03*
X-450500Y-300000D03*
D16*
X-75400Y-320950D03*
X-24600Y-320950D03*
X-75400Y-359050D03*
X-24600Y-359050D03*
X14600Y-320950D03*
X65400Y-320950D03*
X14600Y-359050D03*
X65400Y-359050D03*
D27*
X243000Y-40000D03*
X297000Y-40000D03*
D18*
X-380000Y-90000D03*
X-380000Y-70000D03*
X-360000Y-100000D03*
X-360000Y-80000D03*
D28*
X37500Y267500D03*
X32500Y267500D03*
X27500Y267500D03*
X22500Y267500D03*
X17500Y267500D03*
X12500Y267500D03*
X7500Y267500D03*
X2500Y267500D03*
X-2500Y267500D03*
X-7500Y267500D03*
X-12500Y267500D03*
X-17500Y267500D03*
X-22500Y267500D03*
X-27500Y267500D03*
X-32500Y267500D03*
X-37500Y267500D03*
D29*
X-56500Y300000D03*
X56500Y300000D03*
D30*
X191500Y97000D03*
X228500Y143000D03*
X228500Y97000D03*
D31*
X-627500Y66000D03*
X-644500Y66000D03*
X-676400Y66000D03*
X-659400Y66000D03*
D32*
X-631895Y26099D03*
D33*
X-631888Y45107D03*
D34*
X-672401Y45101D03*
D35*
X-672158Y26098D03*
D36*
X-631800Y26200D03*
X-631800Y45300D03*
X-672300Y26200D03*
X-672300Y45300D03*
D31*
X672500Y66000D03*
X655500Y66000D03*
X623600Y66000D03*
X640600Y66000D03*
D32*
X668105Y26099D03*
D33*
X668112Y45107D03*
D34*
X627599Y45101D03*
D35*
X627842Y26098D03*
D36*
X668200Y26200D03*
X668200Y45300D03*
X627700Y26200D03*
X627700Y45300D03*
X-436000Y242500D03*
X-436000Y225500D03*
X-436000Y193600D03*
X-436000Y210600D03*
D37*
X-396099Y238105D03*
D38*
X-415107Y238112D03*
D39*
X-415101Y197599D03*
D40*
X-396098Y197842D03*
D31*
X-396200Y238200D03*
X-415300Y238200D03*
X-396200Y197700D03*
X-415300Y197700D03*
D36*
X436000Y197500D03*
X436000Y214500D03*
X436000Y246400D03*
X436000Y229400D03*
D37*
X396099Y201895D03*
D38*
X415107Y201888D03*
D39*
X415101Y242401D03*
D40*
X396098Y242158D03*
D31*
X396200Y201800D03*
X415300Y201800D03*
X396200Y242300D03*
X415300Y242300D03*
M02*
