G04 EAGLE Gerber RS-274X export*
G75*
%MOMM*%
%FSLAX34Y34*%
%LPD*%
%INSoldermask Bottom*%
%IPPOS*%
%AMOC8*
5,1,8,0,0,1.08239X$1,22.5*%
G01*
%ADD10C,1.203200*%
%ADD11R,1.503200X1.703200*%
%ADD12R,1.803200X1.503200*%
%ADD13C,1.727200*%
%ADD14C,1.625600*%
%ADD15C,2.603200*%
%ADD16C,1.981200*%
%ADD17C,2.082800*%
%ADD18C,1.727200*%
%ADD19R,1.403200X1.403200*%
%ADD20C,3.419200*%
%ADD21R,1.503200X1.803200*%
%ADD22R,1.203200X1.603200*%
%ADD23C,1.879600*%
%ADD24C,0.959600*%
%ADD25C,1.159600*%
%ADD26C,1.209600*%


D10*
X-350000Y210000D03*
X-350000Y230000D03*
X-660000Y-20000D03*
X-640000Y-20000D03*
X350000Y230000D03*
X350000Y210000D03*
X640000Y-20000D03*
X660000Y-20000D03*
D11*
X-130500Y-270000D03*
X-149500Y-270000D03*
D12*
X-180000Y-160000D03*
X-180000Y-140000D03*
D13*
X202700Y-142380D02*
X202700Y-157620D01*
X177300Y-157620D02*
X177300Y-142380D01*
D14*
X140000Y-356500D03*
X140000Y-323500D03*
X115000Y-356500D03*
X165000Y-356500D03*
X165000Y-323500D03*
X115000Y-323500D03*
D11*
X-210700Y-10701D03*
X-229700Y-10701D03*
D15*
X-678200Y-270000D03*
X-678200Y-90000D03*
X678200Y-90000D03*
X678200Y-270000D03*
D16*
X-320000Y100000D03*
X-302039Y117961D03*
X-284079Y135921D03*
X-266118Y153882D03*
D13*
X310533Y98691D02*
X321309Y109467D01*
X303349Y127428D02*
X292572Y116651D01*
X274612Y134612D02*
X285388Y145388D01*
X267428Y163349D02*
X256651Y152572D01*
X238691Y170533D02*
X249467Y181309D01*
D17*
X-475400Y-69050D03*
X-475400Y-43650D03*
X-450000Y-69050D03*
X-450000Y-43650D03*
X-424600Y-69050D03*
X-424600Y-43650D03*
D13*
X252700Y-142380D02*
X252700Y-157620D01*
X227300Y-157620D02*
X227300Y-142380D01*
X127000Y212380D02*
X127000Y227620D01*
X101600Y227620D02*
X101600Y212380D01*
X76200Y212380D02*
X76200Y227620D01*
X50800Y227620D02*
X50800Y212380D01*
X25400Y212380D02*
X25400Y227620D01*
X0Y227620D02*
X0Y212380D01*
X-25400Y212380D02*
X-25400Y227620D01*
X-50800Y227620D02*
X-50800Y212380D01*
X-76200Y212380D02*
X-76200Y227620D01*
X-101600Y227620D02*
X-101600Y212380D01*
X-127000Y212380D02*
X-127000Y227620D01*
D11*
X-40500Y-270000D03*
X-59500Y-270000D03*
X49500Y-270000D03*
X30500Y-270000D03*
D18*
X241671Y44645D03*
X267071Y44645D03*
X292471Y44645D03*
D16*
X410000Y10000D03*
X410000Y40000D03*
D19*
X470500Y-330000D03*
X449500Y-330000D03*
X-449500Y-330000D03*
X-470500Y-330000D03*
D11*
X450400Y-300000D03*
X469400Y-300000D03*
X-469400Y-300000D03*
X-450400Y-300000D03*
D20*
X-305000Y190000D03*
X305000Y230000D03*
X530000Y-10000D03*
X-530000Y-10000D03*
X-370000Y110000D03*
D11*
X219500Y80000D03*
X200500Y80000D03*
D21*
X-370000Y40000D03*
X-390000Y40000D03*
D12*
X-290000Y-260000D03*
X-290000Y-240000D03*
X290000Y-240000D03*
X290000Y-260000D03*
D20*
X-530000Y-50000D03*
X530000Y-50000D03*
X-305000Y230000D03*
X305000Y190000D03*
X370000Y110000D03*
D22*
X210000Y109000D03*
X219500Y131000D03*
X200500Y131000D03*
D17*
X-220000Y-50000D03*
X-220000Y-75400D03*
D20*
X-200000Y250000D03*
X-200000Y210000D03*
X200000Y210000D03*
X200000Y250000D03*
X-370000Y70000D03*
X370000Y70000D03*
D17*
X-490000Y0D03*
X-472039Y17961D03*
X-454079Y35921D03*
X-436118Y53882D03*
X-418158Y71842D03*
X-364000Y-262000D03*
X-364000Y-236600D03*
X-338600Y-262000D03*
X-338600Y-236600D03*
X-313200Y-262000D03*
X-313200Y-236600D03*
X365000Y-238000D03*
X365000Y-263400D03*
X339600Y-238000D03*
X339600Y-263400D03*
X314200Y-238000D03*
X314200Y-263400D03*
D23*
X-626500Y2000D03*
X-651900Y2000D03*
X-677300Y2000D03*
D20*
X-651900Y94600D03*
D23*
X673500Y2000D03*
X648100Y2000D03*
X622700Y2000D03*
D20*
X648100Y94600D03*
D23*
X-372000Y243500D03*
X-372000Y218100D03*
X-372000Y192700D03*
D20*
X-464600Y218100D03*
D23*
X372000Y196500D03*
X372000Y221900D03*
X372000Y247300D03*
D20*
X464600Y221900D03*
D24*
X33274Y281686D03*
D25*
X400558Y-19558D03*
X297180Y-18796D03*
X-180086Y-184150D03*
X-137414Y-189992D03*
D24*
X-27178Y-285496D03*
X-487172Y-288290D03*
D25*
X-374142Y-146812D03*
D24*
X-362712Y-45212D03*
D25*
X-192278Y50038D03*
X435176Y-300000D03*
D24*
X-248920Y-91440D03*
X201930Y-261874D03*
X84582Y-286512D03*
X-124714Y-333756D03*
X-316230Y-140000D03*
X-379476Y-165100D03*
X-324866Y-175006D03*
X-397764Y-213868D03*
X-187452Y-76200D03*
X-237642Y13462D03*
X-266700Y31750D03*
X-242570Y49530D03*
X-355600Y40640D03*
X-384556Y-18288D03*
X-102616Y-296672D03*
X38354Y248158D03*
X4826Y254734D03*
X14732Y255016D03*
X-50800Y254000D03*
X-76200Y259080D03*
X-137160Y165100D03*
X-142240Y173990D03*
X-142240Y208280D03*
X28448Y255016D03*
X-412750Y19050D03*
X-403860Y33020D03*
X4064Y-287782D03*
X-301244Y-204470D03*
X-79756Y-284480D03*
X-301498Y-193294D03*
X-383656Y-55372D03*
X-387858Y54102D03*
X-239522Y-51562D03*
X-283210Y-64770D03*
X-247650Y-43688D03*
X-377444Y-10668D03*
X-205740Y-37338D03*
X-240030Y-35814D03*
X-384302Y-3048D03*
X219964Y44958D03*
X-249298Y10160D03*
X-377952Y5870D03*
X-486664Y-325882D03*
X434848Y-323088D03*
X176784Y-288290D03*
X-431800Y-280670D03*
D26*
X229108Y-204216D03*
X160020Y-204216D03*
D25*
X341630Y121158D03*
X323088Y-100000D03*
D24*
X-246126Y-133096D03*
X-227584Y-133350D03*
D25*
X-182372Y-116332D03*
D24*
X-210058Y4572D03*
D26*
X139446Y-243586D03*
X158750Y-225298D03*
D24*
X-379730Y26670D03*
X240792Y112268D03*
X-241429Y-99341D03*
X-643543Y25992D03*
X-661933Y35669D03*
X656457Y25992D03*
X638067Y35669D03*
X-395992Y226457D03*
X-405669Y208067D03*
X395992Y213543D03*
X405669Y231933D03*
M02*
