G04 EAGLE Gerber RS-274X export*
G75*
%MOMM*%
%FSLAX34Y34*%
%LPD*%
%INSoldermask Top*%
%IPPOS*%
%AMOC8*
5,1,8,0,0,1.08239X$1,22.5*%
G01*
%ADD10C,1.203200*%
%ADD11R,1.473200X0.762000*%
%ADD12R,0.762000X1.473200*%
%ADD13C,0.653200*%
%ADD14R,3.495038X1.534156*%
%ADD15C,0.352238*%
%ADD16R,3.403200X3.403200*%
%ADD17R,1.503200X1.803200*%
%ADD18R,1.727200X0.965200*%
%ADD19R,0.603200X1.453200*%
%ADD20R,1.803200X1.503200*%
%ADD21R,1.803200X1.603200*%
%ADD22R,5.603200X6.403200*%
%ADD23R,1.203200X1.803200*%
%ADD24R,2.003200X2.403200*%
%ADD25R,3.203200X2.703200*%
%ADD26C,1.727200*%
%ADD27R,1.603200X1.803200*%
%ADD28C,1.625600*%
%ADD29R,1.403200X1.403200*%
%ADD30C,2.603200*%
%ADD31R,1.503200X1.703200*%
%ADD32C,1.981200*%
%ADD33C,2.082800*%
%ADD34C,1.727200*%
%ADD35C,3.419200*%
%ADD36R,3.703200X1.803200*%
%ADD37R,0.400000X1.400000*%
%ADD38R,1.900000X2.350000*%
%ADD39R,1.168400X2.133600*%
%ADD40R,1.203200X1.303200*%
%ADD41R,1.303200X1.203200*%
%ADD42C,1.879600*%
%ADD43C,0.959600*%
%ADD44C,1.159600*%
%ADD45C,1.209600*%


D10*
X-350000Y210000D03*
X-350000Y230000D03*
X-660000Y-20000D03*
X-640000Y-20000D03*
X350000Y230000D03*
X350000Y210000D03*
X640000Y-20000D03*
X660000Y-20000D03*
D11*
G36*
X-352250Y-18040D02*
X-362666Y-28456D01*
X-368054Y-23068D01*
X-357638Y-12652D01*
X-352250Y-18040D01*
G37*
G36*
X-346593Y-23697D02*
X-357009Y-34113D01*
X-362397Y-28725D01*
X-351981Y-18309D01*
X-346593Y-23697D01*
G37*
G36*
X-340937Y-29354D02*
X-351353Y-39770D01*
X-356741Y-34382D01*
X-346325Y-23966D01*
X-340937Y-29354D01*
G37*
G36*
X-335280Y-35011D02*
X-345696Y-45427D01*
X-351084Y-40039D01*
X-340668Y-29623D01*
X-335280Y-35011D01*
G37*
G36*
X-329623Y-40668D02*
X-340039Y-51084D01*
X-345427Y-45696D01*
X-335011Y-35280D01*
X-329623Y-40668D01*
G37*
G36*
X-323966Y-46325D02*
X-334382Y-56741D01*
X-339770Y-51353D01*
X-329354Y-40937D01*
X-323966Y-46325D01*
G37*
G36*
X-318309Y-51981D02*
X-328725Y-62397D01*
X-334113Y-57009D01*
X-323697Y-46593D01*
X-318309Y-51981D01*
G37*
G36*
X-312652Y-57638D02*
X-323068Y-68054D01*
X-328456Y-62666D01*
X-318040Y-52250D01*
X-312652Y-57638D01*
G37*
D12*
G36*
X-291544Y-62666D02*
X-296932Y-68054D01*
X-307348Y-57638D01*
X-301960Y-52250D01*
X-291544Y-62666D01*
G37*
G36*
X-285887Y-57009D02*
X-291275Y-62397D01*
X-301691Y-51981D01*
X-296303Y-46593D01*
X-285887Y-57009D01*
G37*
G36*
X-280230Y-51353D02*
X-285618Y-56741D01*
X-296034Y-46325D01*
X-290646Y-40937D01*
X-280230Y-51353D01*
G37*
G36*
X-274573Y-45696D02*
X-279961Y-51084D01*
X-290377Y-40668D01*
X-284989Y-35280D01*
X-274573Y-45696D01*
G37*
G36*
X-268916Y-40039D02*
X-274304Y-45427D01*
X-284720Y-35011D01*
X-279332Y-29623D01*
X-268916Y-40039D01*
G37*
G36*
X-263259Y-34382D02*
X-268647Y-39770D01*
X-279063Y-29354D01*
X-273675Y-23966D01*
X-263259Y-34382D01*
G37*
G36*
X-257603Y-28725D02*
X-262991Y-34113D01*
X-273407Y-23697D01*
X-268019Y-18309D01*
X-257603Y-28725D01*
G37*
G36*
X-251946Y-23068D02*
X-257334Y-28456D01*
X-267750Y-18040D01*
X-262362Y-12652D01*
X-251946Y-23068D01*
G37*
D11*
G36*
X-251946Y3068D02*
X-262362Y-7348D01*
X-267750Y-1960D01*
X-257334Y8456D01*
X-251946Y3068D01*
G37*
G36*
X-257603Y8725D02*
X-268019Y-1691D01*
X-273407Y3697D01*
X-262991Y14113D01*
X-257603Y8725D01*
G37*
G36*
X-263259Y14382D02*
X-273675Y3966D01*
X-279063Y9354D01*
X-268647Y19770D01*
X-263259Y14382D01*
G37*
G36*
X-268916Y20039D02*
X-279332Y9623D01*
X-284720Y15011D01*
X-274304Y25427D01*
X-268916Y20039D01*
G37*
G36*
X-274573Y25696D02*
X-284989Y15280D01*
X-290377Y20668D01*
X-279961Y31084D01*
X-274573Y25696D01*
G37*
G36*
X-280230Y31353D02*
X-290646Y20937D01*
X-296034Y26325D01*
X-285618Y36741D01*
X-280230Y31353D01*
G37*
G36*
X-285887Y37009D02*
X-296303Y26593D01*
X-301691Y31981D01*
X-291275Y42397D01*
X-285887Y37009D01*
G37*
G36*
X-291544Y42666D02*
X-301960Y32250D01*
X-307348Y37638D01*
X-296932Y48054D01*
X-291544Y42666D01*
G37*
D12*
G36*
X-312652Y37638D02*
X-318040Y32250D01*
X-328456Y42666D01*
X-323068Y48054D01*
X-312652Y37638D01*
G37*
G36*
X-318309Y31981D02*
X-323697Y26593D01*
X-334113Y37009D01*
X-328725Y42397D01*
X-318309Y31981D01*
G37*
G36*
X-323966Y26325D02*
X-329354Y20937D01*
X-339770Y31353D01*
X-334382Y36741D01*
X-323966Y26325D01*
G37*
G36*
X-329623Y20668D02*
X-335011Y15280D01*
X-345427Y25696D01*
X-340039Y31084D01*
X-329623Y20668D01*
G37*
G36*
X-335280Y15011D02*
X-340668Y9623D01*
X-351084Y20039D01*
X-345696Y25427D01*
X-335280Y15011D01*
G37*
G36*
X-340937Y9354D02*
X-346325Y3966D01*
X-356741Y14382D01*
X-351353Y19770D01*
X-340937Y9354D01*
G37*
G36*
X-346593Y3697D02*
X-351981Y-1691D01*
X-362397Y8725D01*
X-357009Y14113D01*
X-346593Y3697D01*
G37*
G36*
X-352250Y-1960D02*
X-357638Y-7348D01*
X-368054Y3068D01*
X-362666Y8456D01*
X-352250Y-1960D01*
G37*
D13*
X-322000Y-92725D02*
X-322000Y-107275D01*
X-310000Y-107275D02*
X-310000Y-92725D01*
X-298000Y-92725D02*
X-298000Y-107275D01*
D14*
X-310025Y-100025D03*
D15*
X-340405Y-16724D02*
X-336510Y-12829D01*
X-340405Y-16724D02*
X-341472Y-15657D01*
X-337577Y-11762D01*
X-336510Y-12829D01*
X-337059Y-13378D02*
X-339193Y-13378D01*
X-332975Y-16364D02*
X-336870Y-20259D01*
X-337937Y-19192D01*
X-334042Y-15297D01*
X-332975Y-16364D01*
X-333524Y-16913D02*
X-335658Y-16913D01*
X-329439Y-19900D02*
X-333334Y-23795D01*
X-334401Y-22728D01*
X-330506Y-18833D01*
X-329439Y-19900D01*
X-329988Y-20449D02*
X-332122Y-20449D01*
X-325904Y-23435D02*
X-329799Y-27330D01*
X-330866Y-26263D01*
X-326971Y-22368D01*
X-325904Y-23435D01*
X-326453Y-23984D02*
X-328587Y-23984D01*
X-322368Y-26971D02*
X-326263Y-30866D01*
X-327330Y-29799D01*
X-323435Y-25904D01*
X-322368Y-26971D01*
X-322917Y-27520D02*
X-325051Y-27520D01*
X-318833Y-30506D02*
X-322728Y-34401D01*
X-323795Y-33334D01*
X-319900Y-29439D01*
X-318833Y-30506D01*
X-319382Y-31055D02*
X-321516Y-31055D01*
X-315297Y-34042D02*
X-319192Y-37937D01*
X-320259Y-36870D01*
X-316364Y-32975D01*
X-315297Y-34042D01*
X-315846Y-34591D02*
X-317980Y-34591D01*
X-311762Y-37577D02*
X-315657Y-41472D01*
X-316724Y-40405D01*
X-312829Y-36510D01*
X-311762Y-37577D01*
X-312311Y-38126D02*
X-314445Y-38126D01*
X-304343Y-41472D02*
X-303276Y-40405D01*
X-304343Y-41472D02*
X-308238Y-37577D01*
X-307171Y-36510D01*
X-303276Y-40405D01*
X-305555Y-38126D02*
X-307689Y-38126D01*
X-300808Y-37937D02*
X-299741Y-36870D01*
X-300808Y-37937D02*
X-304703Y-34042D01*
X-303636Y-32975D01*
X-299741Y-36870D01*
X-302020Y-34591D02*
X-304154Y-34591D01*
X-297272Y-34401D02*
X-296205Y-33334D01*
X-297272Y-34401D02*
X-301167Y-30506D01*
X-300100Y-29439D01*
X-296205Y-33334D01*
X-298484Y-31055D02*
X-300618Y-31055D01*
X-293737Y-30866D02*
X-292670Y-29799D01*
X-293737Y-30866D02*
X-297632Y-26971D01*
X-296565Y-25904D01*
X-292670Y-29799D01*
X-294949Y-27520D02*
X-297083Y-27520D01*
X-290201Y-27330D02*
X-289134Y-26263D01*
X-290201Y-27330D02*
X-294096Y-23435D01*
X-293029Y-22368D01*
X-289134Y-26263D01*
X-291413Y-23984D02*
X-293547Y-23984D01*
X-286666Y-23795D02*
X-285599Y-22728D01*
X-286666Y-23795D02*
X-290561Y-19900D01*
X-289494Y-18833D01*
X-285599Y-22728D01*
X-287878Y-20449D02*
X-290012Y-20449D01*
X-283130Y-20259D02*
X-282063Y-19192D01*
X-283130Y-20259D02*
X-287025Y-16364D01*
X-285958Y-15297D01*
X-282063Y-19192D01*
X-284342Y-16913D02*
X-286476Y-16913D01*
X-279595Y-16724D02*
X-278528Y-15657D01*
X-279595Y-16724D02*
X-283490Y-12829D01*
X-282423Y-11762D01*
X-278528Y-15657D01*
X-280807Y-13378D02*
X-282941Y-13378D01*
X-282423Y-8238D02*
X-278528Y-4343D01*
X-282423Y-8238D02*
X-283490Y-7171D01*
X-279595Y-3276D01*
X-278528Y-4343D01*
X-279077Y-4892D02*
X-281211Y-4892D01*
X-282063Y-808D02*
X-285958Y-4703D01*
X-287025Y-3636D01*
X-283130Y259D01*
X-282063Y-808D01*
X-282612Y-1357D02*
X-284746Y-1357D01*
X-285599Y2728D02*
X-289494Y-1167D01*
X-290561Y-100D01*
X-286666Y3795D01*
X-285599Y2728D01*
X-286148Y2179D02*
X-288282Y2179D01*
X-289134Y6263D02*
X-293029Y2368D01*
X-294096Y3435D01*
X-290201Y7330D01*
X-289134Y6263D01*
X-289683Y5714D02*
X-291817Y5714D01*
X-292670Y9799D02*
X-296565Y5904D01*
X-297632Y6971D01*
X-293737Y10866D01*
X-292670Y9799D01*
X-293219Y9250D02*
X-295353Y9250D01*
X-296205Y13334D02*
X-300100Y9439D01*
X-301167Y10506D01*
X-297272Y14401D01*
X-296205Y13334D01*
X-296754Y12785D02*
X-298888Y12785D01*
X-299741Y16870D02*
X-303636Y12975D01*
X-304703Y14042D01*
X-300808Y17937D01*
X-299741Y16870D01*
X-300290Y16321D02*
X-302424Y16321D01*
X-303276Y20405D02*
X-307171Y16510D01*
X-308238Y17577D01*
X-304343Y21472D01*
X-303276Y20405D01*
X-303825Y19856D02*
X-305959Y19856D01*
X-311762Y17577D02*
X-312829Y16510D01*
X-316724Y20405D01*
X-315657Y21472D01*
X-311762Y17577D01*
X-314041Y19856D02*
X-316175Y19856D01*
X-315297Y14042D02*
X-316364Y12975D01*
X-320259Y16870D01*
X-319192Y17937D01*
X-315297Y14042D01*
X-317576Y16321D02*
X-319710Y16321D01*
X-318833Y10506D02*
X-319900Y9439D01*
X-323795Y13334D01*
X-322728Y14401D01*
X-318833Y10506D01*
X-321112Y12785D02*
X-323246Y12785D01*
X-322368Y6971D02*
X-323435Y5904D01*
X-327330Y9799D01*
X-326263Y10866D01*
X-322368Y6971D01*
X-324647Y9250D02*
X-326781Y9250D01*
X-325904Y3435D02*
X-326971Y2368D01*
X-330866Y6263D01*
X-329799Y7330D01*
X-325904Y3435D01*
X-328183Y5714D02*
X-330317Y5714D01*
X-329439Y-100D02*
X-330506Y-1167D01*
X-334401Y2728D01*
X-333334Y3795D01*
X-329439Y-100D01*
X-331718Y2179D02*
X-333852Y2179D01*
X-332975Y-3636D02*
X-334042Y-4703D01*
X-337937Y-808D01*
X-336870Y259D01*
X-332975Y-3636D01*
X-335254Y-1357D02*
X-337388Y-1357D01*
X-336510Y-7171D02*
X-337577Y-8238D01*
X-341472Y-4343D01*
X-340405Y-3276D01*
X-336510Y-7171D01*
X-338789Y-4892D02*
X-340923Y-4892D01*
D16*
G36*
X-285936Y-10000D02*
X-310000Y-34064D01*
X-334064Y-10000D01*
X-310000Y14064D01*
X-285936Y-10000D01*
G37*
D17*
X-210128Y49736D03*
X-230128Y49736D03*
X-219928Y30320D03*
X-239928Y30320D03*
D18*
X-165400Y-320950D03*
X-114600Y-320950D03*
X-165400Y-359050D03*
X-114600Y-359050D03*
D19*
X-275750Y-186250D03*
X-269250Y-186250D03*
X-262750Y-186250D03*
X-256250Y-186250D03*
X-249750Y-186250D03*
X-243250Y-186250D03*
X-236750Y-186250D03*
X-230250Y-186250D03*
X-223750Y-186250D03*
X-217250Y-186250D03*
X-210750Y-186250D03*
X-204250Y-186250D03*
X-217250Y-113750D03*
X-223750Y-113750D03*
X-230250Y-113750D03*
X-236750Y-113750D03*
X-243250Y-113750D03*
X-249750Y-113750D03*
X-256250Y-113750D03*
X-262750Y-113750D03*
X-269250Y-113750D03*
X-275750Y-113750D03*
X-210750Y-113750D03*
X-204250Y-113750D03*
D20*
X-300000Y-160000D03*
X-300000Y-140000D03*
D21*
X-180000Y-164000D03*
X-180000Y-136000D03*
D22*
X360000Y-35000D03*
D23*
X337200Y-108000D03*
X382800Y-108000D03*
D24*
X285500Y-100000D03*
X234500Y-100000D03*
D25*
X415000Y-50000D03*
X485000Y-50000D03*
D26*
X202700Y-142380D02*
X202700Y-157620D01*
X177300Y-157620D02*
X177300Y-142380D01*
D27*
X372820Y14290D03*
X344820Y14290D03*
D28*
X140000Y-356500D03*
X140000Y-323500D03*
X115000Y-356500D03*
X165000Y-356500D03*
X165000Y-323500D03*
X115000Y-323500D03*
D29*
X-209787Y-10127D03*
X-230787Y-10127D03*
D30*
X-678200Y-270000D03*
X-678200Y-90000D03*
X678200Y-90000D03*
X678200Y-270000D03*
D29*
X470500Y-330000D03*
X449500Y-330000D03*
D31*
X450500Y-300000D03*
X469500Y-300000D03*
D29*
X-449500Y-330000D03*
X-470500Y-330000D03*
D31*
X-469500Y-300000D03*
X-450500Y-300000D03*
D32*
X-320000Y100000D03*
X-302039Y117961D03*
X-284079Y135921D03*
X-266118Y153882D03*
D26*
X310533Y98691D02*
X321309Y109467D01*
X303349Y127428D02*
X292572Y116651D01*
X274612Y134612D02*
X285388Y145388D01*
X267428Y163349D02*
X256651Y152572D01*
X238691Y170533D02*
X249467Y181309D01*
D33*
X-475400Y-69050D03*
X-475400Y-43650D03*
X-450000Y-69050D03*
X-450000Y-43650D03*
X-424600Y-69050D03*
X-424600Y-43650D03*
D26*
X252700Y-142380D02*
X252700Y-157620D01*
X227300Y-157620D02*
X227300Y-142380D01*
X127000Y212380D02*
X127000Y227620D01*
X101600Y227620D02*
X101600Y212380D01*
X76200Y212380D02*
X76200Y227620D01*
X50800Y227620D02*
X50800Y212380D01*
X25400Y212380D02*
X25400Y227620D01*
X0Y227620D02*
X0Y212380D01*
X-25400Y212380D02*
X-25400Y227620D01*
X-50800Y227620D02*
X-50800Y212380D01*
X-76200Y212380D02*
X-76200Y227620D01*
X-101600Y227620D02*
X-101600Y212380D01*
X-127000Y212380D02*
X-127000Y227620D01*
D18*
X-75400Y-320950D03*
X-24600Y-320950D03*
X-75400Y-359050D03*
X-24600Y-359050D03*
X14600Y-320950D03*
X65400Y-320950D03*
X14600Y-359050D03*
X65400Y-359050D03*
D34*
X241671Y44645D03*
X267071Y44645D03*
X292471Y44645D03*
D32*
X410000Y10000D03*
X410000Y40000D03*
D35*
X-305000Y190000D03*
X305000Y230000D03*
X530000Y-10000D03*
X-530000Y-10000D03*
D36*
X243000Y-40000D03*
X297000Y-40000D03*
D35*
X-370000Y110000D03*
D20*
X-380000Y-90000D03*
X-380000Y-70000D03*
X-360000Y-100000D03*
X-360000Y-80000D03*
D35*
X-530000Y-50000D03*
X530000Y-50000D03*
D37*
X37500Y267500D03*
X32500Y267500D03*
X27500Y267500D03*
X22500Y267500D03*
X17500Y267500D03*
X12500Y267500D03*
X7500Y267500D03*
X2500Y267500D03*
X-2500Y267500D03*
X-7500Y267500D03*
X-12500Y267500D03*
X-17500Y267500D03*
X-22500Y267500D03*
X-27500Y267500D03*
X-32500Y267500D03*
X-37500Y267500D03*
D38*
X-56500Y300000D03*
X56500Y300000D03*
D35*
X-305000Y230000D03*
X305000Y190000D03*
X370000Y110000D03*
D39*
X191500Y97000D03*
X228500Y143000D03*
X228500Y97000D03*
D33*
X-220000Y-50000D03*
X-220000Y-75400D03*
D35*
X-200000Y250000D03*
X-200000Y210000D03*
X200000Y210000D03*
X200000Y250000D03*
X-370000Y70000D03*
X370000Y70000D03*
D33*
X-490000Y0D03*
X-472039Y17961D03*
X-454079Y35921D03*
X-436118Y53882D03*
X-418158Y71842D03*
X-364000Y-262000D03*
X-364000Y-236600D03*
X-338600Y-262000D03*
X-338600Y-236600D03*
X-313200Y-262000D03*
X-313200Y-236600D03*
X365000Y-238000D03*
X365000Y-263400D03*
X339600Y-238000D03*
X339600Y-263400D03*
X314200Y-238000D03*
X314200Y-263400D03*
D40*
X-627500Y66000D03*
X-644500Y66000D03*
X-676400Y66000D03*
X-659400Y66000D03*
D41*
X-631800Y26200D03*
X-631800Y45300D03*
X-672300Y26200D03*
X-672300Y45300D03*
D42*
X-626500Y2000D03*
X-651900Y2000D03*
X-677300Y2000D03*
D35*
X-651900Y94600D03*
D40*
X672500Y66000D03*
X655500Y66000D03*
X623600Y66000D03*
X640600Y66000D03*
D41*
X668200Y26200D03*
X668200Y45300D03*
X627700Y26200D03*
X627700Y45300D03*
D42*
X673500Y2000D03*
X648100Y2000D03*
X622700Y2000D03*
D35*
X648100Y94600D03*
D41*
X-436000Y242500D03*
X-436000Y225500D03*
X-436000Y193600D03*
X-436000Y210600D03*
D40*
X-396200Y238200D03*
X-415300Y238200D03*
X-396200Y197700D03*
X-415300Y197700D03*
D42*
X-372000Y243500D03*
X-372000Y218100D03*
X-372000Y192700D03*
D35*
X-464600Y218100D03*
D41*
X436000Y197500D03*
X436000Y214500D03*
X436000Y246400D03*
X436000Y229400D03*
D40*
X396200Y201800D03*
X415300Y201800D03*
X396200Y242300D03*
X415300Y242300D03*
D42*
X372000Y196500D03*
X372000Y221900D03*
X372000Y247300D03*
D35*
X464600Y221900D03*
D43*
X33274Y281686D03*
D44*
X400558Y-19558D03*
X297180Y-18796D03*
X-180086Y-184150D03*
X-137414Y-189992D03*
D43*
X-27178Y-285496D03*
X-487172Y-288290D03*
D44*
X-374142Y-146812D03*
D43*
X-362712Y-45212D03*
D44*
X-192278Y50038D03*
X435176Y-300000D03*
D43*
X-248920Y-91440D03*
X201930Y-261874D03*
X84582Y-286512D03*
X-124714Y-333756D03*
X-316230Y-140000D03*
X-379476Y-165100D03*
X-324866Y-175006D03*
X-397764Y-213868D03*
X-187452Y-76200D03*
X-237642Y13462D03*
X-266700Y31750D03*
X-242570Y49530D03*
X-355600Y40640D03*
X-384556Y-18288D03*
X-102616Y-296672D03*
X38354Y248158D03*
X4826Y254734D03*
X14732Y255016D03*
X-50800Y254000D03*
X-76200Y259080D03*
X-137160Y165100D03*
X-142240Y173990D03*
X-142240Y208280D03*
X28448Y255016D03*
X-412750Y19050D03*
X-403860Y33020D03*
X4064Y-287782D03*
X-301244Y-204470D03*
X-79756Y-284480D03*
X-301498Y-193294D03*
X-383656Y-55372D03*
X-387858Y54102D03*
X-239522Y-51562D03*
X-283210Y-64770D03*
X-247650Y-43688D03*
X-377444Y-10668D03*
X-205740Y-37338D03*
X-240030Y-35814D03*
X-384302Y-3048D03*
X219964Y44958D03*
X-249298Y10160D03*
X-377952Y5870D03*
X-486664Y-325882D03*
X434848Y-323088D03*
X176784Y-288290D03*
X-431800Y-280670D03*
D45*
X229108Y-204216D03*
X160020Y-204216D03*
D44*
X341630Y121158D03*
X323088Y-100000D03*
D43*
X-246126Y-133096D03*
X-227584Y-133350D03*
D44*
X-182372Y-116332D03*
D43*
X-210058Y4572D03*
D45*
X139446Y-243586D03*
X158750Y-225298D03*
D43*
X-379730Y26670D03*
X240792Y112268D03*
X-241429Y-99341D03*
X-643543Y25992D03*
X-661933Y35669D03*
X656457Y25992D03*
X638067Y35669D03*
X-395992Y226457D03*
X-405669Y208067D03*
X395992Y213543D03*
X405669Y231933D03*
M02*
