M48
;GenerationSoftware,Autodesk,EAGLE,9.4.2*%
;CreationDate,2020-02-16T03:38:21Z*%
FMAT,2
ICI,OFF
METRIC,TZ,000.000
T8C0.350
T7C0.550
T6C0.600
T5C0.800
T4C1.000
T3C1.016
T2C2.200
T1C2.400
%
G90
M71
T1
X-67820Y-27000
X-67820Y-9000
X67820Y-9000
X67820Y-27000
T2
X37000Y7000
X-37000Y7000
X20000Y25000
X20000Y21000
X-20000Y21000
X-20000Y25000
X37000Y11000
X30500Y19000
X-30500Y23000
X53000Y-5000
X-53000Y-5000
X-37000Y11000
X-53000Y-1000
X53000Y-1000
X30500Y23000
X-46460Y21810
X64810Y9460
X-65190Y9460
X46460Y22190
X-30500Y19000
T3
X20270Y-15000
X25270Y-15000
X-32000Y10000
X-30204Y11796
X-28408Y13592
X-26612Y15388
X31592Y10408
X29796Y12204
X28000Y14000
X26204Y15796
X24408Y17592
X-47540Y-6905
X-47540Y-4365
X-45000Y-6905
X-45000Y-4365
X-42460Y-6905
X-42460Y-4365
X22730Y-15000
X12700Y22000
X10160Y22000
X7620Y22000
X5080Y22000
X2540Y22000
X0Y22000
X-2540Y22000
X-5080Y22000
X-7620Y22000
X-10160Y22000
X-12700Y22000
X24167Y4464
X26707Y4464
X29247Y4464
X41000Y1000
X41000Y4000
X-22000Y-5000
X-22000Y-7540
X-49000Y0
X-47204Y1796
X-45408Y3592
X-43612Y5388
X-41816Y7184
X-36400Y-26200
X-36400Y-23660
X-33860Y-26200
X-33860Y-23660
X-31320Y-26200
X36500Y-23800
X36500Y-26340
X33960Y-23800
X33960Y-26340
X31420Y-23800
X31420Y-26340
X-62650Y200
X-65190Y200
X-67730Y200
X67350Y200
X64810Y200
X62270Y200
X-37200Y24350
X-37200Y21810
X-37200Y19270
X37200Y19650
X37200Y22190
X37200Y24730
X-31320Y-23660
X17730Y-15000
T4
X64000Y-2000
X35000Y21000
X35000Y23000
X-64000Y-2000
X66000Y-2000
X-66000Y-2000
X-35000Y23000
X-35000Y21000
T5
X14000Y-35650
X14000Y-32350
X11500Y-35650
X16500Y-35650
X16500Y-32350
X11500Y-32350
T6
X16002Y-20422
X22911Y-20422
X13945Y-24359
X15875Y-22530
T7
X40056Y-1956
X29718Y-1880
X-18009Y-18415
X-13741Y-18999
X-19228Y5004
X43518Y-30000
X-37414Y-14681
X34163Y12116
X32309Y-10000
X-18237Y-11633
T8
X1473Y25502
X-5080Y25400
X-7620Y25908
X-13716Y16510
X-14224Y17399
X-14224Y20828
X2845Y25502
X-41275Y1905
X406Y-28778
X-30124Y-20447
X-7976Y-28448
X-30150Y-19329
X-38366Y-5537
X-38786Y5410
X-23952Y-5156
X-28321Y-6477
X-24765Y-4369
X-37744Y-1067
X-40386Y3302
X-24003Y-3581
X-38430Y-305
X21996Y4496
X-24930Y1016
X-37795Y587
X-48666Y-32588
X43485Y-32309
X17678Y-28829
X-43180Y-28067
X3327Y28169
X-20574Y-3734
X-2718Y-28550
X-48717Y-28829
X-24613Y-13310
X-22758Y-13335
X-36271Y-4521
X-21006Y457
X-24892Y-9144
X20193Y-26187
X8458Y-28651
X-12471Y-33376
X-31623Y-14000
X-37948Y-16510
X-32487Y-17501
X-39776Y-21387
X-18745Y-7620
X40567Y23193
X39599Y21354
X-23764Y1346
X-26670Y3175
X-40567Y20807
X-39599Y22646
X24079Y11227
X-24257Y4953
X65646Y2599
X-66193Y3567
X-37973Y2667
X-64354Y2599
X-35560Y4064
X-24143Y-9934
X-38456Y-1829
X-10262Y-29667
X3835Y24816
X483Y25473
X63807Y3567
M30